<?xml version="1.0" encoding="utf-8"?>
<svg xmlns="http://www.w3.org/2000/svg" xmlns:xlink="http://www.w3.org/1999/xlink" width="600" height="400" viewBox="0 0 2400 1600">
<defs>
  <clipPath id="clip990">
    <rect x="0" y="0" width="2400" height="1600"/>
  </clipPath>
</defs>
<path clip-path="url(#clip990)" d="
M0 1600 L2400 1600 L2400 0 L0 0  Z
  " fill="#ffffff" fill-rule="evenodd" fill-opacity="1"/>
<defs>
  <clipPath id="clip991">
    <rect x="480" y="0" width="1681" height="1600"/>
  </clipPath>
</defs>
<path clip-path="url(#clip990)" d="
M148.334 1486.45 L2352.76 1486.45 L2352.76 47.2441 L148.334 47.2441  Z
  " fill="#ffffff" fill-rule="evenodd" fill-opacity="1"/>
<defs>
  <clipPath id="clip992">
    <rect x="148" y="47" width="2205" height="1440"/>
  </clipPath>
</defs>
<polyline clip-path="url(#clip992)" style="stroke:#000000; stroke-width:2; stroke-opacity:0.1; fill:none" points="
  384.989,1486.45 384.989,47.2441 
  "/>
<polyline clip-path="url(#clip992)" style="stroke:#000000; stroke-width:2; stroke-opacity:0.1; fill:none" points="
  673.508,1486.45 673.508,47.2441 
  "/>
<polyline clip-path="url(#clip992)" style="stroke:#000000; stroke-width:2; stroke-opacity:0.1; fill:none" points="
  962.026,1486.45 962.026,47.2441 
  "/>
<polyline clip-path="url(#clip992)" style="stroke:#000000; stroke-width:2; stroke-opacity:0.1; fill:none" points="
  1250.55,1486.45 1250.55,47.2441 
  "/>
<polyline clip-path="url(#clip992)" style="stroke:#000000; stroke-width:2; stroke-opacity:0.1; fill:none" points="
  1539.06,1486.45 1539.06,47.2441 
  "/>
<polyline clip-path="url(#clip992)" style="stroke:#000000; stroke-width:2; stroke-opacity:0.1; fill:none" points="
  1827.58,1486.45 1827.58,47.2441 
  "/>
<polyline clip-path="url(#clip992)" style="stroke:#000000; stroke-width:2; stroke-opacity:0.1; fill:none" points="
  2116.1,1486.45 2116.1,47.2441 
  "/>
<polyline clip-path="url(#clip990)" style="stroke:#000000; stroke-width:4; stroke-opacity:1; fill:none" points="
  148.334,1486.45 2352.76,1486.45 
  "/>
<polyline clip-path="url(#clip990)" style="stroke:#000000; stroke-width:4; stroke-opacity:1; fill:none" points="
  384.989,1486.45 384.989,1469.18 
  "/>
<polyline clip-path="url(#clip990)" style="stroke:#000000; stroke-width:4; stroke-opacity:1; fill:none" points="
  673.508,1486.45 673.508,1469.18 
  "/>
<polyline clip-path="url(#clip990)" style="stroke:#000000; stroke-width:4; stroke-opacity:1; fill:none" points="
  962.026,1486.45 962.026,1469.18 
  "/>
<polyline clip-path="url(#clip990)" style="stroke:#000000; stroke-width:4; stroke-opacity:1; fill:none" points="
  1250.55,1486.45 1250.55,1469.18 
  "/>
<polyline clip-path="url(#clip990)" style="stroke:#000000; stroke-width:4; stroke-opacity:1; fill:none" points="
  1539.06,1486.45 1539.06,1469.18 
  "/>
<polyline clip-path="url(#clip990)" style="stroke:#000000; stroke-width:4; stroke-opacity:1; fill:none" points="
  1827.58,1486.45 1827.58,1469.18 
  "/>
<polyline clip-path="url(#clip990)" style="stroke:#000000; stroke-width:4; stroke-opacity:1; fill:none" points="
  2116.1,1486.45 2116.1,1469.18 
  "/>
<path clip-path="url(#clip990)" d="M 0 0 M375.371 1543.18 L383.01 1543.18 L383.01 1516.82 L374.7 1518.49 L374.7 1514.23 L382.964 1512.56 L387.639 1512.56 L387.639 1543.18 L395.278 1543.18 L395.278 1547.12 L375.371 1547.12 L375.371 1543.18 Z" fill="#000000" fill-rule="evenodd" fill-opacity="1" /><path clip-path="url(#clip990)" d="M 0 0 M668.161 1543.18 L684.48 1543.18 L684.48 1547.12 L662.536 1547.12 L662.536 1543.18 Q665.198 1540.43 669.781 1535.8 Q674.387 1531.15 675.568 1529.81 Q677.813 1527.28 678.693 1525.55 Q679.596 1523.79 679.596 1522.1 Q679.596 1519.34 677.651 1517.61 Q675.73 1515.87 672.628 1515.87 Q670.429 1515.87 667.975 1516.63 Q665.545 1517.4 662.767 1518.95 L662.767 1514.23 Q665.591 1513.09 668.045 1512.51 Q670.498 1511.93 672.535 1511.93 Q677.906 1511.93 681.1 1514.62 Q684.295 1517.31 684.295 1521.8 Q684.295 1523.93 683.485 1525.85 Q682.697 1527.74 680.591 1530.34 Q680.012 1531.01 676.91 1534.23 Q673.809 1537.42 668.161 1543.18 Z" fill="#000000" fill-rule="evenodd" fill-opacity="1" /><path clip-path="url(#clip990)" d="M 0 0 M966.274 1528.49 Q969.631 1529.2 971.506 1531.47 Q973.404 1533.74 973.404 1537.07 Q973.404 1542.19 969.885 1544.99 Q966.367 1547.79 959.885 1547.79 Q957.709 1547.79 955.395 1547.35 Q953.103 1546.93 950.649 1546.08 L950.649 1541.56 Q952.594 1542.7 954.908 1543.28 Q957.223 1543.86 959.746 1543.86 Q964.144 1543.86 966.436 1542.12 Q968.751 1540.38 968.751 1537.07 Q968.751 1534.02 966.598 1532.31 Q964.469 1530.57 960.649 1530.57 L956.621 1530.57 L956.621 1526.73 L960.834 1526.73 Q964.283 1526.73 966.112 1525.36 Q967.941 1523.97 967.941 1521.38 Q967.941 1518.72 966.043 1517.31 Q964.168 1515.87 960.649 1515.87 Q958.728 1515.87 956.529 1516.29 Q954.33 1516.7 951.691 1517.58 L951.691 1513.42 Q954.353 1512.68 956.668 1512.31 Q959.006 1511.93 961.066 1511.93 Q966.39 1511.93 969.492 1514.37 Q972.593 1516.77 972.593 1520.89 Q972.593 1523.76 970.95 1525.75 Q969.306 1527.72 966.274 1528.49 Z" fill="#000000" fill-rule="evenodd" fill-opacity="1" /><path clip-path="url(#clip990)" d="M 0 0 M1253.55 1516.63 L1241.75 1535.08 L1253.55 1535.08 L1253.55 1516.63 M1252.33 1512.56 L1258.21 1512.56 L1258.21 1535.08 L1263.14 1535.08 L1263.14 1538.97 L1258.21 1538.97 L1258.21 1547.12 L1253.55 1547.12 L1253.55 1538.97 L1237.95 1538.97 L1237.95 1534.46 L1252.33 1512.56 Z" fill="#000000" fill-rule="evenodd" fill-opacity="1" /><path clip-path="url(#clip990)" d="M 0 0 M1529.34 1512.56 L1547.7 1512.56 L1547.7 1516.5 L1533.62 1516.5 L1533.62 1524.97 Q1534.64 1524.62 1535.66 1524.46 Q1536.68 1524.27 1537.7 1524.27 Q1543.49 1524.27 1546.86 1527.44 Q1550.24 1530.62 1550.24 1536.03 Q1550.24 1541.61 1546.77 1544.71 Q1543.3 1547.79 1536.98 1547.79 Q1534.8 1547.79 1532.54 1547.42 Q1530.29 1547.05 1527.88 1546.31 L1527.88 1541.61 Q1529.97 1542.74 1532.19 1543.3 Q1534.41 1543.86 1536.89 1543.86 Q1540.89 1543.86 1543.23 1541.75 Q1545.57 1539.64 1545.57 1536.03 Q1545.57 1532.42 1543.23 1530.31 Q1540.89 1528.21 1536.89 1528.21 Q1535.01 1528.21 1533.14 1528.62 Q1531.29 1529.04 1529.34 1529.92 L1529.34 1512.56 Z" fill="#000000" fill-rule="evenodd" fill-opacity="1" /><path clip-path="url(#clip990)" d="M 0 0 M1827.99 1527.98 Q1824.84 1527.98 1822.99 1530.13 Q1821.16 1532.28 1821.16 1536.03 Q1821.16 1539.76 1822.99 1541.93 Q1824.84 1544.09 1827.99 1544.09 Q1831.14 1544.09 1832.96 1541.93 Q1834.82 1539.76 1834.82 1536.03 Q1834.82 1532.28 1832.96 1530.13 Q1831.14 1527.98 1827.99 1527.98 M1837.27 1513.32 L1837.27 1517.58 Q1835.51 1516.75 1833.71 1516.31 Q1831.92 1515.87 1830.16 1515.87 Q1825.53 1515.87 1823.08 1519 Q1820.65 1522.12 1820.3 1528.44 Q1821.67 1526.43 1823.73 1525.36 Q1825.79 1524.27 1828.27 1524.27 Q1833.47 1524.27 1836.48 1527.44 Q1839.52 1530.59 1839.52 1536.03 Q1839.52 1541.36 1836.37 1544.57 Q1833.22 1547.79 1827.99 1547.79 Q1821.99 1547.79 1818.82 1543.21 Q1815.65 1538.6 1815.65 1529.87 Q1815.65 1521.68 1819.54 1516.82 Q1823.43 1511.93 1829.98 1511.93 Q1831.74 1511.93 1833.52 1512.28 Q1835.33 1512.63 1837.27 1513.32 Z" fill="#000000" fill-rule="evenodd" fill-opacity="1" /><path clip-path="url(#clip990)" d="M 0 0 M2104.99 1512.56 L2127.21 1512.56 L2127.21 1514.55 L2114.67 1547.12 L2109.78 1547.12 L2121.59 1516.5 L2104.99 1516.5 L2104.99 1512.56 Z" fill="#000000" fill-rule="evenodd" fill-opacity="1" /><polyline clip-path="url(#clip992)" style="stroke:#000000; stroke-width:2; stroke-opacity:0.1; fill:none" points="
  148.334,1445.72 2352.76,1445.72 
  "/>
<polyline clip-path="url(#clip992)" style="stroke:#000000; stroke-width:2; stroke-opacity:0.1; fill:none" points="
  148.334,1134.27 2352.76,1134.27 
  "/>
<polyline clip-path="url(#clip992)" style="stroke:#000000; stroke-width:2; stroke-opacity:0.1; fill:none" points="
  148.334,822.826 2352.76,822.826 
  "/>
<polyline clip-path="url(#clip992)" style="stroke:#000000; stroke-width:2; stroke-opacity:0.1; fill:none" points="
  148.334,511.381 2352.76,511.381 
  "/>
<polyline clip-path="url(#clip992)" style="stroke:#000000; stroke-width:2; stroke-opacity:0.1; fill:none" points="
  148.334,199.936 2352.76,199.936 
  "/>
<polyline clip-path="url(#clip990)" style="stroke:#000000; stroke-width:4; stroke-opacity:1; fill:none" points="
  148.334,1486.45 148.334,47.2441 
  "/>
<polyline clip-path="url(#clip990)" style="stroke:#000000; stroke-width:4; stroke-opacity:1; fill:none" points="
  148.334,1445.72 174.787,1445.72 
  "/>
<polyline clip-path="url(#clip990)" style="stroke:#000000; stroke-width:4; stroke-opacity:1; fill:none" points="
  148.334,1134.27 174.787,1134.27 
  "/>
<polyline clip-path="url(#clip990)" style="stroke:#000000; stroke-width:4; stroke-opacity:1; fill:none" points="
  148.334,822.826 174.787,822.826 
  "/>
<polyline clip-path="url(#clip990)" style="stroke:#000000; stroke-width:4; stroke-opacity:1; fill:none" points="
  148.334,511.381 174.787,511.381 
  "/>
<polyline clip-path="url(#clip990)" style="stroke:#000000; stroke-width:4; stroke-opacity:1; fill:none" points="
  148.334,199.936 174.787,199.936 
  "/>
<path clip-path="url(#clip990)" d="M 0 0 M63.4226 1431.51 Q59.8115 1431.51 57.9828 1435.08 Q56.1773 1438.62 56.1773 1445.75 Q56.1773 1452.86 57.9828 1456.42 Q59.8115 1459.96 63.4226 1459.96 Q67.0569 1459.96 68.8624 1456.42 Q70.6911 1452.86 70.6911 1445.75 Q70.6911 1438.62 68.8624 1435.08 Q67.0569 1431.51 63.4226 1431.51 M63.4226 1427.81 Q69.2328 1427.81 72.2883 1432.42 Q75.367 1437 75.367 1445.75 Q75.367 1454.48 72.2883 1459.08 Q69.2328 1463.67 63.4226 1463.67 Q57.6125 1463.67 54.5338 1459.08 Q51.4782 1454.48 51.4782 1445.75 Q51.4782 1437 54.5338 1432.42 Q57.6125 1427.81 63.4226 1427.81 Z" fill="#000000" fill-rule="evenodd" fill-opacity="1" /><path clip-path="url(#clip990)" d="M 0 0 M80.4364 1457.12 L85.3206 1457.12 L85.3206 1463 L80.4364 1463 L80.4364 1457.12 Z" fill="#000000" fill-rule="evenodd" fill-opacity="1" /><path clip-path="url(#clip990)" d="M 0 0 M100.39 1431.51 Q96.7789 1431.51 94.9502 1435.08 Q93.1447 1438.62 93.1447 1445.75 Q93.1447 1452.86 94.9502 1456.42 Q96.7789 1459.96 100.39 1459.96 Q104.024 1459.96 105.83 1456.42 Q107.658 1452.86 107.658 1445.75 Q107.658 1438.62 105.83 1435.08 Q104.024 1431.51 100.39 1431.51 M100.39 1427.81 Q106.2 1427.81 109.256 1432.42 Q112.334 1437 112.334 1445.75 Q112.334 1454.48 109.256 1459.08 Q106.2 1463.67 100.39 1463.67 Q94.5799 1463.67 91.5012 1459.08 Q88.4456 1454.48 88.4456 1445.75 Q88.4456 1437 91.5012 1432.42 Q94.5799 1427.81 100.39 1427.81 Z" fill="#000000" fill-rule="evenodd" fill-opacity="1" /><path clip-path="url(#clip990)" d="M 0 0 M64.6495 1120.07 Q61.0384 1120.07 59.2097 1123.63 Q57.4041 1127.18 57.4041 1134.31 Q57.4041 1141.41 59.2097 1144.98 Q61.0384 1148.52 64.6495 1148.52 Q68.2837 1148.52 70.0892 1144.98 Q71.9179 1141.41 71.9179 1134.31 Q71.9179 1127.18 70.0892 1123.63 Q68.2837 1120.07 64.6495 1120.07 M64.6495 1116.37 Q70.4596 1116.37 73.5152 1120.97 Q76.5938 1125.56 76.5938 1134.31 Q76.5938 1143.03 73.5152 1147.64 Q70.4596 1152.22 64.6495 1152.22 Q58.8393 1152.22 55.7606 1147.64 Q52.7051 1143.03 52.7051 1134.31 Q52.7051 1125.56 55.7606 1120.97 Q58.8393 1116.37 64.6495 1116.37 Z" fill="#000000" fill-rule="evenodd" fill-opacity="1" /><path clip-path="url(#clip990)" d="M 0 0 M81.6633 1145.67 L86.5475 1145.67 L86.5475 1151.55 L81.6633 1151.55 L81.6633 1145.67 Z" fill="#000000" fill-rule="evenodd" fill-opacity="1" /><path clip-path="url(#clip990)" d="M 0 0 M92.4271 1147.62 L100.066 1147.62 L100.066 1121.25 L91.7558 1122.92 L91.7558 1118.66 L100.02 1116.99 L104.696 1116.99 L104.696 1147.62 L112.334 1147.62 L112.334 1151.55 L92.4271 1151.55 L92.4271 1147.62 Z" fill="#000000" fill-rule="evenodd" fill-opacity="1" /><path clip-path="url(#clip990)" d="M 0 0 M65.0198 808.624 Q61.4087 808.624 59.58 812.189 Q57.7745 815.731 57.7745 822.861 Q57.7745 829.967 59.58 833.532 Q61.4087 837.073 65.0198 837.073 Q68.6541 837.073 70.4596 833.532 Q72.2883 829.967 72.2883 822.861 Q72.2883 815.731 70.4596 812.189 Q68.6541 808.624 65.0198 808.624 M65.0198 804.921 Q70.83 804.921 73.8855 809.527 Q76.9642 814.111 76.9642 822.861 Q76.9642 831.587 73.8855 836.194 Q70.83 840.777 65.0198 840.777 Q59.2097 840.777 56.131 836.194 Q53.0754 831.587 53.0754 822.861 Q53.0754 814.111 56.131 809.527 Q59.2097 804.921 65.0198 804.921 Z" fill="#000000" fill-rule="evenodd" fill-opacity="1" /><path clip-path="url(#clip990)" d="M 0 0 M82.0336 834.226 L86.9179 834.226 L86.9179 840.106 L82.0336 840.106 L82.0336 834.226 Z" fill="#000000" fill-rule="evenodd" fill-opacity="1" /><path clip-path="url(#clip990)" d="M 0 0 M96.015 836.171 L112.334 836.171 L112.334 840.106 L90.3901 840.106 L90.3901 836.171 Q93.0521 833.416 97.6354 828.786 Q102.242 824.134 103.422 822.791 Q105.668 820.268 106.547 818.532 Q107.45 816.773 107.45 815.083 Q107.45 812.328 105.506 810.592 Q103.584 808.856 100.483 808.856 Q98.2835 808.856 95.8298 809.62 Q93.3993 810.384 90.6215 811.935 L90.6215 807.212 Q93.4456 806.078 95.8993 805.5 Q98.353 804.921 100.39 804.921 Q105.76 804.921 108.955 807.606 Q112.149 810.291 112.149 814.782 Q112.149 816.911 111.339 818.833 Q110.552 820.731 108.446 823.323 Q107.867 823.995 104.765 827.212 Q101.663 830.407 96.015 836.171 Z" fill="#000000" fill-rule="evenodd" fill-opacity="1" /><path clip-path="url(#clip990)" d="M 0 0 M64.0708 497.18 Q60.4597 497.18 58.631 500.744 Q56.8254 504.286 56.8254 511.416 Q56.8254 518.522 58.631 522.087 Q60.4597 525.628 64.0708 525.628 Q67.705 525.628 69.5105 522.087 Q71.3392 518.522 71.3392 511.416 Q71.3392 504.286 69.5105 500.744 Q67.705 497.18 64.0708 497.18 M64.0708 493.476 Q69.8809 493.476 72.9365 498.082 Q76.0151 502.666 76.0151 511.416 Q76.0151 520.142 72.9365 524.749 Q69.8809 529.332 64.0708 529.332 Q58.2606 529.332 55.1819 524.749 Q52.1264 520.142 52.1264 511.416 Q52.1264 502.666 55.1819 498.082 Q58.2606 493.476 64.0708 493.476 Z" fill="#000000" fill-rule="evenodd" fill-opacity="1" /><path clip-path="url(#clip990)" d="M 0 0 M81.0846 522.781 L85.9688 522.781 L85.9688 528.661 L81.0846 528.661 L81.0846 522.781 Z" fill="#000000" fill-rule="evenodd" fill-opacity="1" /><path clip-path="url(#clip990)" d="M 0 0 M105.205 510.027 Q108.561 510.744 110.436 513.013 Q112.334 515.281 112.334 518.615 Q112.334 523.73 108.816 526.531 Q105.297 529.332 98.8159 529.332 Q96.64 529.332 94.3252 528.892 Q92.0336 528.476 89.5799 527.619 L89.5799 523.105 Q91.5243 524.24 93.8391 524.818 Q96.1539 525.397 98.6771 525.397 Q103.075 525.397 105.367 523.661 Q107.682 521.925 107.682 518.615 Q107.682 515.559 105.529 513.846 Q103.399 512.11 99.5798 512.11 L95.5521 512.11 L95.5521 508.267 L99.765 508.267 Q103.214 508.267 105.043 506.902 Q106.871 505.513 106.871 502.92 Q106.871 500.258 104.973 498.846 Q103.098 497.411 99.5798 497.411 Q97.6585 497.411 95.4595 497.828 Q93.2604 498.244 90.6215 499.124 L90.6215 494.957 Q93.2836 494.217 95.5984 493.846 Q97.9363 493.476 99.9965 493.476 Q105.321 493.476 108.422 495.906 Q111.524 498.314 111.524 502.434 Q111.524 505.304 109.881 507.295 Q108.237 509.263 105.205 510.027 Z" fill="#000000" fill-rule="evenodd" fill-opacity="1" /><path clip-path="url(#clip990)" d="M 0 0 M62.9365 185.735 Q59.3254 185.735 57.4967 189.299 Q55.6912 192.841 55.6912 199.971 Q55.6912 207.077 57.4967 210.642 Q59.3254 214.184 62.9365 214.184 Q66.5707 214.184 68.3763 210.642 Q70.205 207.077 70.205 199.971 Q70.205 192.841 68.3763 189.299 Q66.5707 185.735 62.9365 185.735 M62.9365 182.031 Q68.7467 182.031 71.8022 186.637 Q74.8809 191.221 74.8809 199.971 Q74.8809 208.697 71.8022 213.304 Q68.7467 217.887 62.9365 217.887 Q57.1264 217.887 54.0477 213.304 Q50.9921 208.697 50.9921 199.971 Q50.9921 191.221 54.0477 186.637 Q57.1264 182.031 62.9365 182.031 Z" fill="#000000" fill-rule="evenodd" fill-opacity="1" /><path clip-path="url(#clip990)" d="M 0 0 M79.9503 211.336 L84.8345 211.336 L84.8345 217.216 L79.9503 217.216 L79.9503 211.336 Z" fill="#000000" fill-rule="evenodd" fill-opacity="1" /><path clip-path="url(#clip990)" d="M 0 0 M102.751 186.73 L90.9456 205.179 L102.751 205.179 L102.751 186.73 M101.524 182.656 L107.404 182.656 L107.404 205.179 L112.334 205.179 L112.334 209.068 L107.404 209.068 L107.404 217.216 L102.751 217.216 L102.751 209.068 L87.1493 209.068 L87.1493 204.554 L101.524 182.656 Z" fill="#000000" fill-rule="evenodd" fill-opacity="1" /><path clip-path="url(#clip992)" d="
M269.581 1322.54 L269.581 1445.72 L500.396 1445.72 L500.396 1322.54 L269.581 1322.54 L269.581 1322.54  Z
  " fill="#008000" fill-rule="evenodd" fill-opacity="1"/>
<polyline clip-path="url(#clip992)" style="stroke:#000000; stroke-width:4; stroke-opacity:1; fill:none" points="
  269.581,1322.54 269.581,1445.72 500.396,1445.72 500.396,1322.54 269.581,1322.54 
  "/>
<path clip-path="url(#clip992)" d="
M558.1 1322.54 L558.1 1445.72 L788.915 1445.72 L788.915 1322.54 L558.1 1322.54 L558.1 1322.54  Z
  " fill="#008000" fill-rule="evenodd" fill-opacity="1"/>
<polyline clip-path="url(#clip992)" style="stroke:#000000; stroke-width:4; stroke-opacity:1; fill:none" points="
  558.1,1322.54 558.1,1445.72 788.915,1445.72 788.915,1322.54 558.1,1322.54 
  "/>
<path clip-path="url(#clip992)" d="
M846.619 1110.9 L846.619 1445.72 L1077.43 1445.72 L1077.43 1110.9 L846.619 1110.9 L846.619 1110.9  Z
  " fill="#008000" fill-rule="evenodd" fill-opacity="1"/>
<polyline clip-path="url(#clip992)" style="stroke:#000000; stroke-width:4; stroke-opacity:1; fill:none" points="
  846.619,1110.9 846.619,1445.72 1077.43,1445.72 1077.43,1110.9 846.619,1110.9 
  "/>
<path clip-path="url(#clip992)" d="
M1135.14 87.9763 L1135.14 1445.72 L1365.95 1445.72 L1365.95 87.9763 L1135.14 87.9763 L1135.14 87.9763  Z
  " fill="#008000" fill-rule="evenodd" fill-opacity="1"/>
<polyline clip-path="url(#clip992)" style="stroke:#000000; stroke-width:4; stroke-opacity:1; fill:none" points="
  1135.14,87.9763 1135.14,1445.72 1365.95,1445.72 1365.95,87.9763 1135.14,87.9763 
  "/>
<path clip-path="url(#clip992)" d="
M1423.66 1404.72 L1423.66 1445.72 L1654.47 1445.72 L1654.47 1404.72 L1423.66 1404.72 L1423.66 1404.72  Z
  " fill="#008000" fill-rule="evenodd" fill-opacity="1"/>
<polyline clip-path="url(#clip992)" style="stroke:#000000; stroke-width:4; stroke-opacity:1; fill:none" points="
  1423.66,1404.72 1423.66,1445.72 1654.47,1445.72 1654.47,1404.72 1423.66,1404.72 
  "/>
<path clip-path="url(#clip992)" d="
M1712.18 535.596 L1712.18 1445.72 L1942.99 1445.72 L1942.99 535.596 L1712.18 535.596 L1712.18 535.596  Z
  " fill="#008000" fill-rule="evenodd" fill-opacity="1"/>
<polyline clip-path="url(#clip992)" style="stroke:#000000; stroke-width:4; stroke-opacity:1; fill:none" points="
  1712.18,535.596 1712.18,1445.72 1942.99,1445.72 1942.99,535.596 1712.18,535.596 
  "/>
<path clip-path="url(#clip992)" d="
M2000.69 1221.28 L2000.69 1445.72 L2231.51 1445.72 L2231.51 1221.28 L2000.69 1221.28 L2000.69 1221.28  Z
  " fill="#008000" fill-rule="evenodd" fill-opacity="1"/>
<polyline clip-path="url(#clip992)" style="stroke:#000000; stroke-width:4; stroke-opacity:1; fill:none" points="
  2000.69,1221.28 2000.69,1445.72 2231.51,1445.72 2231.51,1221.28 2000.69,1221.28 
  "/>
</svg>
