<?xml version="1.0" encoding="utf-8"?>
<svg xmlns="http://www.w3.org/2000/svg" xmlns:xlink="http://www.w3.org/1999/xlink" width="600" height="400" viewBox="0 0 2400 1600">
<defs>
  <clipPath id="clip990">
    <rect x="0" y="0" width="2400" height="1600"/>
  </clipPath>
</defs>
<path clip-path="url(#clip990)" d="
M0 1600 L2400 1600 L2400 0 L0 0  Z
  " fill="#ffffff" fill-rule="evenodd" fill-opacity="1"/>
<defs>
  <clipPath id="clip991">
    <rect x="480" y="0" width="1681" height="1600"/>
  </clipPath>
</defs>
<path clip-path="url(#clip990)" d="
M148.01 1486.45 L2352.76 1486.45 L2352.76 47.2441 L148.01 47.2441  Z
  " fill="#ffffff" fill-rule="evenodd" fill-opacity="1"/>
<defs>
  <clipPath id="clip992">
    <rect x="148" y="47" width="2206" height="1440"/>
  </clipPath>
</defs>
<polyline clip-path="url(#clip992)" style="stroke:#000000; stroke-width:2; stroke-opacity:0.1; fill:none" points="
  210.409,1486.45 210.409,47.2441 
  "/>
<polyline clip-path="url(#clip992)" style="stroke:#000000; stroke-width:2; stroke-opacity:0.1; fill:none" points="
  730.396,1486.45 730.396,47.2441 
  "/>
<polyline clip-path="url(#clip992)" style="stroke:#000000; stroke-width:2; stroke-opacity:0.1; fill:none" points="
  1250.38,1486.45 1250.38,47.2441 
  "/>
<polyline clip-path="url(#clip992)" style="stroke:#000000; stroke-width:2; stroke-opacity:0.1; fill:none" points="
  1770.37,1486.45 1770.37,47.2441 
  "/>
<polyline clip-path="url(#clip992)" style="stroke:#000000; stroke-width:2; stroke-opacity:0.1; fill:none" points="
  2290.36,1486.45 2290.36,47.2441 
  "/>
<polyline clip-path="url(#clip990)" style="stroke:#000000; stroke-width:4; stroke-opacity:1; fill:none" points="
  148.01,1486.45 2352.76,1486.45 
  "/>
<polyline clip-path="url(#clip990)" style="stroke:#000000; stroke-width:4; stroke-opacity:1; fill:none" points="
  210.409,1486.45 210.409,1469.18 
  "/>
<polyline clip-path="url(#clip990)" style="stroke:#000000; stroke-width:4; stroke-opacity:1; fill:none" points="
  730.396,1486.45 730.396,1469.18 
  "/>
<polyline clip-path="url(#clip990)" style="stroke:#000000; stroke-width:4; stroke-opacity:1; fill:none" points="
  1250.38,1486.45 1250.38,1469.18 
  "/>
<polyline clip-path="url(#clip990)" style="stroke:#000000; stroke-width:4; stroke-opacity:1; fill:none" points="
  1770.37,1486.45 1770.37,1469.18 
  "/>
<polyline clip-path="url(#clip990)" style="stroke:#000000; stroke-width:4; stroke-opacity:1; fill:none" points="
  2290.36,1486.45 2290.36,1469.18 
  "/>
<path clip-path="url(#clip990)" d="M 0 0 M182.863 1530.29 L212.538 1530.29 L212.538 1534.23 L182.863 1534.23 L182.863 1530.29 Z" fill="#000000" fill-rule="evenodd" fill-opacity="1" /><path clip-path="url(#clip990)" d="M 0 0 M221.636 1543.18 L237.955 1543.18 L237.955 1547.12 L216.011 1547.12 L216.011 1543.18 Q218.673 1540.43 223.256 1535.8 Q227.862 1531.15 229.043 1529.81 Q231.288 1527.28 232.168 1525.55 Q233.071 1523.79 233.071 1522.1 Q233.071 1519.34 231.126 1517.61 Q229.205 1515.87 226.103 1515.87 Q223.904 1515.87 221.45 1516.63 Q219.02 1517.4 216.242 1518.95 L216.242 1514.23 Q219.066 1513.09 221.52 1512.51 Q223.974 1511.93 226.011 1511.93 Q231.381 1511.93 234.575 1514.62 Q237.77 1517.31 237.77 1521.8 Q237.77 1523.93 236.96 1525.85 Q236.173 1527.74 234.066 1530.34 Q233.487 1531.01 230.386 1534.23 Q227.284 1537.42 221.636 1543.18 Z" fill="#000000" fill-rule="evenodd" fill-opacity="1" /><path clip-path="url(#clip990)" d="M 0 0 M702.665 1530.29 L732.34 1530.29 L732.34 1534.23 L702.665 1534.23 L702.665 1530.29 Z" fill="#000000" fill-rule="evenodd" fill-opacity="1" /><path clip-path="url(#clip990)" d="M 0 0 M738.22 1543.18 L745.859 1543.18 L745.859 1516.82 L737.549 1518.49 L737.549 1514.23 L745.813 1512.56 L750.488 1512.56 L750.488 1543.18 L758.127 1543.18 L758.127 1547.12 L738.22 1547.12 L738.22 1543.18 Z" fill="#000000" fill-rule="evenodd" fill-opacity="1" /><path clip-path="url(#clip990)" d="M 0 0 M1250.38 1515.64 Q1246.77 1515.64 1244.94 1519.2 Q1243.14 1522.75 1243.14 1529.87 Q1243.14 1536.98 1244.94 1540.55 Q1246.77 1544.09 1250.38 1544.09 Q1254.02 1544.09 1255.82 1540.55 Q1257.65 1536.98 1257.65 1529.87 Q1257.65 1522.75 1255.82 1519.2 Q1254.02 1515.64 1250.38 1515.64 M1250.38 1511.93 Q1256.19 1511.93 1259.25 1516.54 Q1262.33 1521.12 1262.33 1529.87 Q1262.33 1538.6 1259.25 1543.21 Q1256.19 1547.79 1250.38 1547.79 Q1244.57 1547.79 1241.49 1543.21 Q1238.44 1538.6 1238.44 1529.87 Q1238.44 1521.12 1241.49 1516.54 Q1244.57 1511.93 1250.38 1511.93 Z" fill="#000000" fill-rule="evenodd" fill-opacity="1" /><path clip-path="url(#clip990)" d="M 0 0 M1760.75 1543.18 L1768.39 1543.18 L1768.39 1516.82 L1760.08 1518.49 L1760.08 1514.23 L1768.34 1512.56 L1773.02 1512.56 L1773.02 1543.18 L1780.66 1543.18 L1780.66 1547.12 L1760.75 1547.12 L1760.75 1543.18 Z" fill="#000000" fill-rule="evenodd" fill-opacity="1" /><path clip-path="url(#clip990)" d="M 0 0 M2285.01 1543.18 L2301.33 1543.18 L2301.33 1547.12 L2279.39 1547.12 L2279.39 1543.18 Q2282.05 1540.43 2286.63 1535.8 Q2291.24 1531.15 2292.42 1529.81 Q2294.66 1527.28 2295.54 1525.55 Q2296.45 1523.79 2296.45 1522.1 Q2296.45 1519.34 2294.5 1517.61 Q2292.58 1515.87 2289.48 1515.87 Q2287.28 1515.87 2284.83 1516.63 Q2282.39 1517.4 2279.62 1518.95 L2279.62 1514.23 Q2282.44 1513.09 2284.89 1512.51 Q2287.35 1511.93 2289.39 1511.93 Q2294.76 1511.93 2297.95 1514.62 Q2301.14 1517.31 2301.14 1521.8 Q2301.14 1523.93 2300.33 1525.85 Q2299.55 1527.74 2297.44 1530.34 Q2296.86 1531.01 2293.76 1534.23 Q2290.66 1537.42 2285.01 1543.18 Z" fill="#000000" fill-rule="evenodd" fill-opacity="1" /><polyline clip-path="url(#clip992)" style="stroke:#000000; stroke-width:2; stroke-opacity:0.1; fill:none" points="
  148.01,1203.33 2352.76,1203.33 
  "/>
<polyline clip-path="url(#clip992)" style="stroke:#000000; stroke-width:2; stroke-opacity:0.1; fill:none" points="
  148.01,868.503 2352.76,868.503 
  "/>
<polyline clip-path="url(#clip992)" style="stroke:#000000; stroke-width:2; stroke-opacity:0.1; fill:none" points="
  148.01,533.675 2352.76,533.675 
  "/>
<polyline clip-path="url(#clip992)" style="stroke:#000000; stroke-width:2; stroke-opacity:0.1; fill:none" points="
  148.01,198.848 2352.76,198.848 
  "/>
<polyline clip-path="url(#clip990)" style="stroke:#000000; stroke-width:4; stroke-opacity:1; fill:none" points="
  148.01,1486.45 148.01,47.2441 
  "/>
<polyline clip-path="url(#clip990)" style="stroke:#000000; stroke-width:4; stroke-opacity:1; fill:none" points="
  148.01,1203.33 174.467,1203.33 
  "/>
<polyline clip-path="url(#clip990)" style="stroke:#000000; stroke-width:4; stroke-opacity:1; fill:none" points="
  148.01,868.503 174.467,868.503 
  "/>
<polyline clip-path="url(#clip990)" style="stroke:#000000; stroke-width:4; stroke-opacity:1; fill:none" points="
  148.01,533.675 174.467,533.675 
  "/>
<polyline clip-path="url(#clip990)" style="stroke:#000000; stroke-width:4; stroke-opacity:1; fill:none" points="
  148.01,198.848 174.467,198.848 
  "/>
<path clip-path="url(#clip990)" d="M 0 0 M63.0985 1189.13 Q59.4875 1189.13 57.6588 1192.69 Q55.8532 1196.24 55.8532 1203.36 Q55.8532 1210.47 57.6588 1214.04 Q59.4875 1217.58 63.0985 1217.58 Q66.7328 1217.58 68.5383 1214.04 Q70.367 1210.47 70.367 1203.36 Q70.367 1196.24 68.5383 1192.69 Q66.7328 1189.13 63.0985 1189.13 M63.0985 1185.42 Q68.9087 1185.42 71.9642 1190.03 Q75.0429 1194.61 75.0429 1203.36 Q75.0429 1212.09 71.9642 1216.7 Q68.9087 1221.28 63.0985 1221.28 Q57.2884 1221.28 54.2097 1216.7 Q51.1542 1212.09 51.1542 1203.36 Q51.1542 1194.61 54.2097 1190.03 Q57.2884 1185.42 63.0985 1185.42 Z" fill="#000000" fill-rule="evenodd" fill-opacity="1" /><path clip-path="url(#clip990)" d="M 0 0 M80.1123 1214.73 L84.9966 1214.73 L84.9966 1220.61 L80.1123 1220.61 L80.1123 1214.73 Z" fill="#000000" fill-rule="evenodd" fill-opacity="1" /><path clip-path="url(#clip990)" d="M 0 0 M100.066 1189.13 Q96.4548 1189.13 94.6262 1192.69 Q92.8206 1196.24 92.8206 1203.36 Q92.8206 1210.47 94.6262 1214.04 Q96.4548 1217.58 100.066 1217.58 Q103.7 1217.58 105.506 1214.04 Q107.334 1210.47 107.334 1203.36 Q107.334 1196.24 105.506 1192.69 Q103.7 1189.13 100.066 1189.13 M100.066 1185.42 Q105.876 1185.42 108.932 1190.03 Q112.01 1194.61 112.01 1203.36 Q112.01 1212.09 108.932 1216.7 Q105.876 1221.28 100.066 1221.28 Q94.2558 1221.28 91.1771 1216.7 Q88.1216 1212.09 88.1216 1203.36 Q88.1216 1194.61 91.1771 1190.03 Q94.2558 1185.42 100.066 1185.42 Z" fill="#000000" fill-rule="evenodd" fill-opacity="1" /><path clip-path="url(#clip990)" d="M 0 0 M63.7467 854.301 Q60.1356 854.301 58.3069 857.866 Q56.5014 861.408 56.5014 868.537 Q56.5014 875.644 58.3069 879.209 Q60.1356 882.75 63.7467 882.75 Q67.3809 882.75 69.1865 879.209 Q71.0152 875.644 71.0152 868.537 Q71.0152 861.408 69.1865 857.866 Q67.3809 854.301 63.7467 854.301 M63.7467 850.598 Q69.5568 850.598 72.6124 855.204 Q75.6911 859.787 75.6911 868.537 Q75.6911 877.264 72.6124 881.871 Q69.5568 886.454 63.7467 886.454 Q57.9365 886.454 54.8578 881.871 Q51.8023 877.264 51.8023 868.537 Q51.8023 859.787 54.8578 855.204 Q57.9365 850.598 63.7467 850.598 Z" fill="#000000" fill-rule="evenodd" fill-opacity="1" /><path clip-path="url(#clip990)" d="M 0 0 M80.7605 879.903 L85.6447 879.903 L85.6447 885.783 L80.7605 885.783 L80.7605 879.903 Z" fill="#000000" fill-rule="evenodd" fill-opacity="1" /><path clip-path="url(#clip990)" d="M 0 0 M104.881 867.149 Q108.237 867.866 110.112 870.135 Q112.01 872.403 112.01 875.736 Q112.01 880.852 108.492 883.653 Q104.973 886.454 98.4919 886.454 Q96.316 886.454 94.0012 886.014 Q91.7095 885.597 89.2558 884.741 L89.2558 880.227 Q91.2002 881.361 93.515 881.94 Q95.8298 882.519 98.353 882.519 Q102.751 882.519 105.043 880.783 Q107.358 879.047 107.358 875.736 Q107.358 872.681 105.205 870.968 Q103.075 869.232 99.2558 869.232 L95.228 869.232 L95.228 865.389 L99.4409 865.389 Q102.89 865.389 104.719 864.024 Q106.547 862.635 106.547 860.042 Q106.547 857.38 104.649 855.968 Q102.774 854.533 99.2558 854.533 Q97.3345 854.533 95.1354 854.949 Q92.9363 855.366 90.2975 856.246 L90.2975 852.079 Q92.9595 851.338 95.2743 850.968 Q97.6122 850.598 99.6724 850.598 Q104.996 850.598 108.098 853.028 Q111.2 855.436 111.2 859.556 Q111.2 862.426 109.557 864.417 Q107.913 866.385 104.881 867.149 Z" fill="#000000" fill-rule="evenodd" fill-opacity="1" /><path clip-path="url(#clip990)" d="M 0 0 M62.9365 519.474 Q59.3254 519.474 57.4967 523.039 Q55.6912 526.581 55.6912 533.71 Q55.6912 540.817 57.4967 544.381 Q59.3254 547.923 62.9365 547.923 Q66.5707 547.923 68.3763 544.381 Q70.205 540.817 70.205 533.71 Q70.205 526.581 68.3763 523.039 Q66.5707 519.474 62.9365 519.474 M62.9365 515.77 Q68.7467 515.77 71.8022 520.377 Q74.8809 524.96 74.8809 533.71 Q74.8809 542.437 71.8022 547.043 Q68.7467 551.627 62.9365 551.627 Q57.1264 551.627 54.0477 547.043 Q50.9921 542.437 50.9921 533.71 Q50.9921 524.96 54.0477 520.377 Q57.1264 515.77 62.9365 515.77 Z" fill="#000000" fill-rule="evenodd" fill-opacity="1" /><path clip-path="url(#clip990)" d="M 0 0 M79.9503 545.076 L84.8345 545.076 L84.8345 550.955 L79.9503 550.955 L79.9503 545.076 Z" fill="#000000" fill-rule="evenodd" fill-opacity="1" /><path clip-path="url(#clip990)" d="M 0 0 M100.483 531.812 Q97.3345 531.812 95.4826 533.965 Q93.6539 536.118 93.6539 539.868 Q93.6539 543.594 95.4826 545.77 Q97.3345 547.923 100.483 547.923 Q103.631 547.923 105.459 545.77 Q107.311 543.594 107.311 539.868 Q107.311 536.118 105.459 533.965 Q103.631 531.812 100.483 531.812 M109.765 517.159 L109.765 521.419 Q108.006 520.585 106.2 520.145 Q104.418 519.706 102.659 519.706 Q98.0289 519.706 95.5752 522.831 Q93.1447 525.956 92.7975 532.275 Q94.1632 530.261 96.2234 529.196 Q98.2835 528.108 100.76 528.108 Q105.969 528.108 108.978 531.28 Q112.01 534.428 112.01 539.868 Q112.01 545.192 108.862 548.409 Q105.714 551.627 100.483 551.627 Q94.4873 551.627 91.316 547.043 Q88.1447 542.437 88.1447 533.71 Q88.1447 525.516 92.0336 520.655 Q95.9224 515.77 102.473 515.77 Q104.233 515.77 106.015 516.118 Q107.821 516.465 109.765 517.159 Z" fill="#000000" fill-rule="evenodd" fill-opacity="1" /><path clip-path="url(#clip990)" d="M 0 0 M63.2837 184.647 Q59.6726 184.647 57.8439 188.212 Q56.0384 191.753 56.0384 198.883 Q56.0384 205.989 57.8439 209.554 Q59.6726 213.096 63.2837 213.096 Q66.918 213.096 68.7235 209.554 Q70.5522 205.989 70.5522 198.883 Q70.5522 191.753 68.7235 188.212 Q66.918 184.647 63.2837 184.647 M63.2837 180.943 Q69.0939 180.943 72.1494 185.55 Q75.2281 190.133 75.2281 198.883 Q75.2281 207.61 72.1494 212.216 Q69.0939 216.799 63.2837 216.799 Q57.4736 216.799 54.3949 212.216 Q51.3393 207.61 51.3393 198.883 Q51.3393 190.133 54.3949 185.55 Q57.4736 180.943 63.2837 180.943 Z" fill="#000000" fill-rule="evenodd" fill-opacity="1" /><path clip-path="url(#clip990)" d="M 0 0 M80.2975 210.249 L85.1818 210.249 L85.1818 216.128 L80.2975 216.128 L80.2975 210.249 Z" fill="#000000" fill-rule="evenodd" fill-opacity="1" /><path clip-path="url(#clip990)" d="M 0 0 M90.3901 215.411 L90.3901 211.151 Q92.1493 211.985 93.9549 212.425 Q95.7604 212.864 97.4965 212.864 Q102.126 212.864 104.557 209.762 Q107.01 206.638 107.358 200.295 Q106.015 202.286 103.955 203.35 Q101.895 204.415 99.3946 204.415 Q94.2095 204.415 91.1771 201.29 Q88.1679 198.142 88.1679 192.702 Q88.1679 187.378 91.316 184.161 Q94.4641 180.943 99.6956 180.943 Q105.691 180.943 108.839 185.55 Q112.01 190.133 112.01 198.883 Q112.01 207.054 108.121 211.938 Q104.256 216.799 97.7048 216.799 Q95.9456 216.799 94.14 216.452 Q92.3345 216.105 90.3901 215.411 M99.6956 200.758 Q102.844 200.758 104.672 198.605 Q106.524 196.452 106.524 192.702 Q106.524 188.976 104.672 186.823 Q102.844 184.647 99.6956 184.647 Q96.5474 184.647 94.6956 186.823 Q92.8669 188.976 92.8669 192.702 Q92.8669 196.452 94.6956 198.605 Q96.5474 200.758 99.6956 200.758 Z" fill="#000000" fill-rule="evenodd" fill-opacity="1" /><polyline clip-path="url(#clip992)" style="stroke:#009af9; stroke-width:4; stroke-opacity:1; fill:none" points="
  210.409,1203.33 214.577,1207.81 218.745,1212.25 222.913,1216.59 227.082,1220.76 231.25,1224.68 235.418,1228.29 239.586,1231.53 243.755,1234.36 247.923,1236.71 
  252.091,1238.56 256.259,1239.86 260.428,1240.58 264.596,1240.73 268.764,1240.28 272.932,1239.23 277.101,1237.61 281.269,1235.43 285.437,1232.72 289.605,1229.52 
  293.773,1225.87 297.942,1221.84 302.11,1217.47 306.278,1212.84 310.446,1208.02 314.615,1203.08 318.783,1198.1 322.951,1193.16 327.119,1188.34 331.288,1183.71 
  335.456,1179.35 339.624,1175.33 343.792,1171.72 347.96,1168.58 352.129,1165.96 356.297,1163.92 360.465,1162.48 364.633,1161.68 368.802,1161.53 372.97,1162.05 
  377.138,1163.23 381.306,1165.05 385.475,1167.51 389.643,1170.55 393.811,1174.15 397.979,1178.25 402.148,1182.79 406.316,1187.7 410.484,1192.91 414.652,1198.33 
  418.82,1203.89 422.989,1209.5 427.157,1215.06 431.325,1220.49 435.493,1225.71 439.662,1230.62 443.83,1235.16 447.998,1239.23 452.166,1242.77 456.335,1245.72 
  460.503,1248.03 464.671,1249.65 468.839,1250.55 473.008,1250.71 477.176,1250.12 481.344,1248.77 485.512,1246.69 489.68,1243.89 493.849,1240.42 498.017,1236.32 
  502.185,1231.65 506.353,1226.47 510.522,1220.87 514.69,1214.92 518.858,1208.73 523.026,1202.37 527.195,1195.96 531.363,1189.59 535.531,1183.36 539.699,1177.38 
  543.867,1171.75 548.036,1166.55 552.204,1161.87 556.372,1157.79 560.54,1154.4 564.709,1151.74 568.877,1149.87 573.045,1148.83 577.213,1148.64 581.382,1149.33 
  585.55,1150.88 589.718,1153.29 593.886,1156.52 598.055,1160.55 602.223,1165.3 606.391,1170.73 610.559,1176.74 614.727,1183.26 618.896,1190.18 623.064,1197.41 
  627.232,1204.82 631.4,1212.31 635.569,1219.76 639.737,1227.05 643.905,1234.07 648.073,1240.68 652.242,1246.8 656.41,1252.31 660.578,1257.11 664.746,1261.13 
  668.914,1264.28 673.083,1266.51 677.251,1267.76 681.419,1268 685.587,1267.21 689.756,1265.39 693.924,1262.56 698.092,1258.73 702.26,1253.97 706.429,1248.32 
  710.597,1241.87 714.765,1234.7 718.933,1226.92 723.102,1218.65 727.27,1209.99 731.438,1201.09 735.606,1192.08 739.774,1183.1 743.943,1174.3 748.111,1165.82 
  752.279,1157.79 756.447,1150.36 760.616,1143.64 764.784,1137.76 768.952,1132.83 773.12,1128.94 777.289,1126.16 781.457,1124.57 785.625,1124.21 789.793,1125.11 
  793.962,1127.27 798.13,1130.69 802.298,1135.34 806.466,1141.15 810.634,1148.07 814.803,1156.01 818.971,1164.86 823.139,1174.49 827.307,1184.78 831.476,1195.57 
  835.644,1206.69 839.812,1217.99 843.98,1229.29 848.149,1240.41 852.317,1251.16 856.485,1261.38 860.653,1270.89 864.821,1279.52 868.99,1287.12 873.158,1293.55 
  877.326,1298.68 881.494,1302.39 885.663,1304.61 889.831,1305.25 893.999,1304.27 898.167,1301.66 902.336,1297.41 906.504,1291.54 910.672,1284.12 914.84,1275.22 
  919.009,1264.94 923.177,1253.42 927.345,1240.79 931.513,1227.23 935.681,1212.93 939.85,1198.09 944.018,1182.93 948.186,1167.68 952.354,1152.57 956.523,1137.86 
  960.691,1123.77 964.859,1110.54 969.027,1098.42 973.196,1087.62 977.364,1078.35 981.532,1070.8 985.7,1065.14 989.868,1061.53 994.037,1060.08 998.205,1060.88 
  1002.37,1064.01 1006.54,1069.49 1010.71,1077.32 1014.88,1087.45 1019.05,1099.82 1023.21,1114.31 1027.38,1130.77 1031.55,1149.04 1035.72,1168.89 1039.89,1190.08 
  1044.06,1212.34 1048.22,1235.38 1052.39,1258.87 1056.56,1282.47 1060.73,1305.82 1064.9,1328.57 1069.06,1350.33 1073.23,1370.74 1077.4,1389.41 1081.57,1405.99 
  1085.74,1420.11 1089.91,1431.45 1094.07,1439.69 1098.24,1444.53 1102.41,1445.72 1106.58,1443.02 1110.75,1436.26 1114.92,1425.28 1119.08,1409.98 1123.25,1390.29 
  1127.42,1366.21 1131.59,1337.77 1135.76,1305.05 1139.92,1268.2 1144.09,1227.38 1148.26,1182.84 1152.43,1134.85 1156.6,1083.72 1160.77,1029.82 1164.93,973.536 
  1169.1,915.31 1173.27,855.595 1177.44,794.876 1181.61,733.657 1185.78,672.455 1189.94,611.797 1194.11,552.213 1198.28,494.229 1202.45,438.365 1206.62,385.127 
  1210.78,334.999 1214.95,288.443 1219.12,245.89 1223.29,207.736 1227.46,174.338 1231.63,146.009 1235.79,123.018 1239.96,105.581 1244.13,93.863 1248.3,87.9763 
  1252.47,87.9763 1256.64,93.863 1260.8,105.581 1264.97,123.018 1269.14,146.009 1273.31,174.338 1277.48,207.736 1281.64,245.89 1285.81,288.443 1289.98,334.999 
  1294.15,385.127 1298.32,438.365 1302.49,494.229 1306.65,552.213 1310.82,611.797 1314.99,672.455 1319.16,733.657 1323.33,794.876 1327.5,855.595 1331.66,915.31 
  1335.83,973.536 1340,1029.82 1344.17,1083.72 1348.34,1134.85 1352.5,1182.84 1356.67,1227.38 1360.84,1268.2 1365.01,1305.05 1369.18,1337.77 1373.35,1366.21 
  1377.51,1390.29 1381.68,1409.98 1385.85,1425.28 1390.02,1436.26 1394.19,1443.02 1398.36,1445.72 1402.52,1444.53 1406.69,1439.69 1410.86,1431.45 1415.03,1420.11 
  1419.2,1405.99 1423.36,1389.41 1427.53,1370.74 1431.7,1350.33 1435.87,1328.57 1440.04,1305.82 1444.21,1282.47 1448.37,1258.87 1452.54,1235.38 1456.71,1212.34 
  1460.88,1190.08 1465.05,1168.89 1469.22,1149.04 1473.38,1130.77 1477.55,1114.31 1481.72,1099.82 1485.89,1087.45 1490.06,1077.32 1494.22,1069.49 1498.39,1064.01 
  1502.56,1060.88 1506.73,1060.08 1510.9,1061.53 1515.07,1065.14 1519.23,1070.8 1523.4,1078.35 1527.57,1087.62 1531.74,1098.42 1535.91,1110.54 1540.08,1123.77 
  1544.24,1137.86 1548.41,1152.57 1552.58,1167.68 1556.75,1182.93 1560.92,1198.09 1565.08,1212.93 1569.25,1227.23 1573.42,1240.79 1577.59,1253.42 1581.76,1264.94 
  1585.93,1275.22 1590.09,1284.12 1594.26,1291.54 1598.43,1297.41 1602.6,1301.66 1606.77,1304.27 1610.94,1305.25 1615.1,1304.61 1619.27,1302.39 1623.44,1298.68 
  1627.61,1293.55 1631.78,1287.12 1635.94,1279.52 1640.11,1270.89 1644.28,1261.38 1648.45,1251.16 1652.62,1240.41 1656.79,1229.29 1660.95,1217.99 1665.12,1206.69 
  1669.29,1195.57 1673.46,1184.78 1677.63,1174.49 1681.8,1164.86 1685.96,1156.01 1690.13,1148.07 1694.3,1141.15 1698.47,1135.34 1702.64,1130.69 1706.8,1127.27 
  1710.97,1125.11 1715.14,1124.21 1719.31,1124.57 1723.48,1126.16 1727.65,1128.94 1731.81,1132.83 1735.98,1137.76 1740.15,1143.64 1744.32,1150.36 1748.49,1157.79 
  1752.66,1165.82 1756.82,1174.3 1760.99,1183.1 1765.16,1192.08 1769.33,1201.09 1773.5,1209.99 1777.66,1218.65 1781.83,1226.92 1786,1234.7 1790.17,1241.87 
  1794.34,1248.32 1798.51,1253.97 1802.67,1258.73 1806.84,1262.56 1811.01,1265.39 1815.18,1267.21 1819.35,1268 1823.52,1267.76 1827.68,1266.51 1831.85,1264.28 
  1836.02,1261.13 1840.19,1257.11 1844.36,1252.31 1848.52,1246.8 1852.69,1240.68 1856.86,1234.07 1861.03,1227.05 1865.2,1219.76 1869.37,1212.31 1873.53,1204.82 
  1877.7,1197.41 1881.87,1190.18 1886.04,1183.26 1890.21,1176.74 1894.38,1170.73 1898.54,1165.3 1902.71,1160.55 1906.88,1156.52 1911.05,1153.29 1915.22,1150.88 
  1919.38,1149.33 1923.55,1148.64 1927.72,1148.83 1931.89,1149.87 1936.06,1151.74 1940.23,1154.4 1944.39,1157.79 1948.56,1161.87 1952.73,1166.55 1956.9,1171.75 
  1961.07,1177.38 1965.24,1183.36 1969.4,1189.59 1973.57,1195.96 1977.74,1202.37 1981.91,1208.73 1986.08,1214.92 1990.24,1220.87 1994.41,1226.47 1998.58,1231.65 
  2002.75,1236.32 2006.92,1240.42 2011.09,1243.89 2015.25,1246.69 2019.42,1248.77 2023.59,1250.12 2027.76,1250.71 2031.93,1250.55 2036.1,1249.65 2040.26,1248.03 
  2044.43,1245.72 2048.6,1242.77 2052.77,1239.23 2056.94,1235.16 2061.1,1230.62 2065.27,1225.71 2069.44,1220.49 2073.61,1215.06 2077.78,1209.5 2081.95,1203.89 
  2086.11,1198.33 2090.28,1192.91 2094.45,1187.7 2098.62,1182.79 2102.79,1178.25 2106.96,1174.15 2111.12,1170.55 2115.29,1167.51 2119.46,1165.05 2123.63,1163.23 
  2127.8,1162.05 2131.96,1161.53 2136.13,1161.68 2140.3,1162.48 2144.47,1163.92 2148.64,1165.96 2152.81,1168.58 2156.97,1171.72 2161.14,1175.33 2165.31,1179.35 
  2169.48,1183.71 2173.65,1188.34 2177.82,1193.16 2181.98,1198.1 2186.15,1203.08 2190.32,1208.02 2194.49,1212.84 2198.66,1217.47 2202.82,1221.84 2206.99,1225.87 
  2211.16,1229.52 2215.33,1232.72 2219.5,1235.43 2223.67,1237.61 2227.83,1239.23 2232,1240.28 2236.17,1240.73 2240.34,1240.58 2244.51,1239.86 2248.68,1238.56 
  2252.84,1236.71 2257.01,1234.36 2261.18,1231.53 2265.35,1228.29 2269.52,1224.68 2273.68,1220.76 2277.85,1216.59 2282.02,1212.25 2286.19,1207.81 2290.36,1203.33 
  
  "/>
<path clip-path="url(#clip990)" d="
M1983.27 216.178 L2279.26 216.178 L2279.26 95.2176 L1983.27 95.2176  Z
  " fill="#ffffff" fill-rule="evenodd" fill-opacity="1"/>
<polyline clip-path="url(#clip990)" style="stroke:#000000; stroke-width:4; stroke-opacity:1; fill:none" points="
  1983.27,216.178 2279.26,216.178 2279.26,95.2176 1983.27,95.2176 1983.27,216.178 
  "/>
<polyline clip-path="url(#clip990)" style="stroke:#009af9; stroke-width:4; stroke-opacity:1; fill:none" points="
  2007.77,155.698 2154.75,155.698 
  "/>
<path clip-path="url(#clip990)" d="M 0 0 M2193.09 175.385 Q2191.29 180.015 2189.58 181.427 Q2187.86 182.839 2184.99 182.839 L2181.59 182.839 L2181.59 179.274 L2184.09 179.274 Q2185.85 179.274 2186.82 178.44 Q2187.79 177.607 2188.97 174.505 L2189.74 172.561 L2179.25 147.052 L2183.77 147.052 L2191.87 167.329 L2199.97 147.052 L2204.48 147.052 L2193.09 175.385 Z" fill="#000000" fill-rule="evenodd" fill-opacity="1" /><path clip-path="url(#clip990)" d="M 0 0 M2210.36 169.042 L2218 169.042 L2218 142.677 L2209.69 144.343 L2209.69 140.084 L2217.96 138.418 L2222.63 138.418 L2222.63 169.042 L2230.27 169.042 L2230.27 172.978 L2210.36 172.978 L2210.36 169.042 Z" fill="#000000" fill-rule="evenodd" fill-opacity="1" /></svg>
