<?xml version="1.0" encoding="utf-8"?>
<svg xmlns="http://www.w3.org/2000/svg" xmlns:xlink="http://www.w3.org/1999/xlink" width="600" height="400" viewBox="0 0 2400 1600">
<defs>
  <clipPath id="clip260">
    <rect x="0" y="0" width="2400" height="1600"/>
  </clipPath>
</defs>
<path clip-path="url(#clip260)" d="
M0 1600 L2400 1600 L2400 0 L0 0  Z
  " fill="#ffffff" fill-rule="evenodd" fill-opacity="1"/>
<defs>
  <clipPath id="clip261">
    <rect x="480" y="0" width="1681" height="1600"/>
  </clipPath>
</defs>
<path clip-path="url(#clip260)" d="
M156.598 1486.45 L2352.76 1486.45 L2352.76 47.2441 L156.598 47.2441  Z
  " fill="#ffffff" fill-rule="evenodd" fill-opacity="1"/>
<defs>
  <clipPath id="clip262">
    <rect x="156" y="47" width="2197" height="1440"/>
  </clipPath>
</defs>
<polyline clip-path="url(#clip262)" style="stroke:#000000; stroke-width:2; stroke-opacity:0.1; fill:none" points="
  392.366,1486.45 392.366,47.2441 
  "/>
<polyline clip-path="url(#clip262)" style="stroke:#000000; stroke-width:2; stroke-opacity:0.1; fill:none" points="
  679.803,1486.45 679.803,47.2441 
  "/>
<polyline clip-path="url(#clip262)" style="stroke:#000000; stroke-width:2; stroke-opacity:0.1; fill:none" points="
  967.24,1486.45 967.24,47.2441 
  "/>
<polyline clip-path="url(#clip262)" style="stroke:#000000; stroke-width:2; stroke-opacity:0.1; fill:none" points="
  1254.68,1486.45 1254.68,47.2441 
  "/>
<polyline clip-path="url(#clip262)" style="stroke:#000000; stroke-width:2; stroke-opacity:0.1; fill:none" points="
  1542.11,1486.45 1542.11,47.2441 
  "/>
<polyline clip-path="url(#clip262)" style="stroke:#000000; stroke-width:2; stroke-opacity:0.1; fill:none" points="
  1829.55,1486.45 1829.55,47.2441 
  "/>
<polyline clip-path="url(#clip262)" style="stroke:#000000; stroke-width:2; stroke-opacity:0.1; fill:none" points="
  2116.99,1486.45 2116.99,47.2441 
  "/>
<polyline clip-path="url(#clip260)" style="stroke:#000000; stroke-width:4; stroke-opacity:1; fill:none" points="
  156.598,1486.45 2352.76,1486.45 
  "/>
<polyline clip-path="url(#clip260)" style="stroke:#000000; stroke-width:4; stroke-opacity:1; fill:none" points="
  392.366,1486.45 392.366,1469.18 
  "/>
<polyline clip-path="url(#clip260)" style="stroke:#000000; stroke-width:4; stroke-opacity:1; fill:none" points="
  679.803,1486.45 679.803,1469.18 
  "/>
<polyline clip-path="url(#clip260)" style="stroke:#000000; stroke-width:4; stroke-opacity:1; fill:none" points="
  967.24,1486.45 967.24,1469.18 
  "/>
<polyline clip-path="url(#clip260)" style="stroke:#000000; stroke-width:4; stroke-opacity:1; fill:none" points="
  1254.68,1486.45 1254.68,1469.18 
  "/>
<polyline clip-path="url(#clip260)" style="stroke:#000000; stroke-width:4; stroke-opacity:1; fill:none" points="
  1542.11,1486.45 1542.11,1469.18 
  "/>
<polyline clip-path="url(#clip260)" style="stroke:#000000; stroke-width:4; stroke-opacity:1; fill:none" points="
  1829.55,1486.45 1829.55,1469.18 
  "/>
<polyline clip-path="url(#clip260)" style="stroke:#000000; stroke-width:4; stroke-opacity:1; fill:none" points="
  2116.99,1486.45 2116.99,1469.18 
  "/>
<path clip-path="url(#clip260)" d="M 0 0 M382.748 1543.18 L390.387 1543.18 L390.387 1516.82 L382.076 1518.49 L382.076 1514.23 L390.34 1512.56 L395.016 1512.56 L395.016 1543.18 L402.655 1543.18 L402.655 1547.12 L382.748 1547.12 L382.748 1543.18 Z" fill="#000000" fill-rule="evenodd" fill-opacity="1" /><path clip-path="url(#clip260)" d="M 0 0 M674.456 1543.18 L690.775 1543.18 L690.775 1547.12 L668.831 1547.12 L668.831 1543.18 Q671.493 1540.43 676.076 1535.8 Q680.682 1531.15 681.863 1529.81 Q684.108 1527.28 684.988 1525.55 Q685.891 1523.79 685.891 1522.1 Q685.891 1519.34 683.946 1517.61 Q682.025 1515.87 678.923 1515.87 Q676.724 1515.87 674.27 1516.63 Q671.84 1517.4 669.062 1518.95 L669.062 1514.23 Q671.886 1513.09 674.34 1512.51 Q676.794 1511.93 678.831 1511.93 Q684.201 1511.93 687.395 1514.62 Q690.59 1517.31 690.59 1521.8 Q690.59 1523.93 689.78 1525.85 Q688.993 1527.74 686.886 1530.34 Q686.307 1531.01 683.206 1534.23 Q680.104 1537.42 674.456 1543.18 Z" fill="#000000" fill-rule="evenodd" fill-opacity="1" /><path clip-path="url(#clip260)" d="M 0 0 M971.488 1528.49 Q974.844 1529.2 976.719 1531.47 Q978.617 1533.74 978.617 1537.07 Q978.617 1542.19 975.099 1544.99 Q971.58 1547.79 965.099 1547.79 Q962.923 1547.79 960.608 1547.35 Q958.316 1546.93 955.863 1546.08 L955.863 1541.56 Q957.807 1542.7 960.122 1543.28 Q962.437 1543.86 964.96 1543.86 Q969.358 1543.86 971.65 1542.12 Q973.964 1540.38 973.964 1537.07 Q973.964 1534.02 971.812 1532.31 Q969.682 1530.57 965.863 1530.57 L961.835 1530.57 L961.835 1526.73 L966.048 1526.73 Q969.497 1526.73 971.326 1525.36 Q973.154 1523.97 973.154 1521.38 Q973.154 1518.72 971.256 1517.31 Q969.381 1515.87 965.863 1515.87 Q963.941 1515.87 961.742 1516.29 Q959.543 1516.7 956.904 1517.58 L956.904 1513.42 Q959.566 1512.68 961.881 1512.31 Q964.219 1511.93 966.279 1511.93 Q971.603 1511.93 974.705 1514.37 Q977.807 1516.77 977.807 1520.89 Q977.807 1523.76 976.163 1525.75 Q974.52 1527.72 971.488 1528.49 Z" fill="#000000" fill-rule="evenodd" fill-opacity="1" /><path clip-path="url(#clip260)" d="M 0 0 M1257.69 1516.63 L1245.88 1535.08 L1257.69 1535.08 L1257.69 1516.63 M1256.46 1512.56 L1262.34 1512.56 L1262.34 1535.08 L1267.27 1535.08 L1267.27 1538.97 L1262.34 1538.97 L1262.34 1547.12 L1257.69 1547.12 L1257.69 1538.97 L1242.08 1538.97 L1242.08 1534.46 L1256.46 1512.56 Z" fill="#000000" fill-rule="evenodd" fill-opacity="1" /><path clip-path="url(#clip260)" d="M 0 0 M1532.39 1512.56 L1550.75 1512.56 L1550.75 1516.5 L1536.67 1516.5 L1536.67 1524.97 Q1537.69 1524.62 1538.71 1524.46 Q1539.73 1524.27 1540.75 1524.27 Q1546.54 1524.27 1549.92 1527.44 Q1553.29 1530.62 1553.29 1536.03 Q1553.29 1541.61 1549.82 1544.71 Q1546.35 1547.79 1540.03 1547.79 Q1537.85 1547.79 1535.59 1547.42 Q1533.34 1547.05 1530.93 1546.31 L1530.93 1541.61 Q1533.02 1542.74 1535.24 1543.3 Q1537.46 1543.86 1539.94 1543.86 Q1543.94 1543.86 1546.28 1541.75 Q1548.62 1539.64 1548.62 1536.03 Q1548.62 1532.42 1546.28 1530.31 Q1543.94 1528.21 1539.94 1528.21 Q1538.06 1528.21 1536.19 1528.62 Q1534.34 1529.04 1532.39 1529.92 L1532.39 1512.56 Z" fill="#000000" fill-rule="evenodd" fill-opacity="1" /><path clip-path="url(#clip260)" d="M 0 0 M1829.96 1527.98 Q1826.81 1527.98 1824.96 1530.13 Q1823.13 1532.28 1823.13 1536.03 Q1823.13 1539.76 1824.96 1541.93 Q1826.81 1544.09 1829.96 1544.09 Q1833.1 1544.09 1834.93 1541.93 Q1836.79 1539.76 1836.79 1536.03 Q1836.79 1532.28 1834.93 1530.13 Q1833.1 1527.98 1829.96 1527.98 M1839.24 1513.32 L1839.24 1517.58 Q1837.48 1516.75 1835.67 1516.31 Q1833.89 1515.87 1832.13 1515.87 Q1827.5 1515.87 1825.05 1519 Q1822.62 1522.12 1822.27 1528.44 Q1823.64 1526.43 1825.7 1525.36 Q1827.76 1524.27 1830.23 1524.27 Q1835.44 1524.27 1838.45 1527.44 Q1841.48 1530.59 1841.48 1536.03 Q1841.48 1541.36 1838.34 1544.57 Q1835.19 1547.79 1829.96 1547.79 Q1823.96 1547.79 1820.79 1543.21 Q1817.62 1538.6 1817.62 1529.87 Q1817.62 1521.68 1821.51 1516.82 Q1825.4 1511.93 1831.95 1511.93 Q1833.71 1511.93 1835.49 1512.28 Q1837.29 1512.63 1839.24 1513.32 Z" fill="#000000" fill-rule="evenodd" fill-opacity="1" /><path clip-path="url(#clip260)" d="M 0 0 M2105.88 1512.56 L2128.1 1512.56 L2128.1 1514.55 L2115.55 1547.12 L2110.67 1547.12 L2122.47 1516.5 L2105.88 1516.5 L2105.88 1512.56 Z" fill="#000000" fill-rule="evenodd" fill-opacity="1" /><polyline clip-path="url(#clip262)" style="stroke:#000000; stroke-width:2; stroke-opacity:0.1; fill:none" points="
  156.598,1445.72 2352.76,1445.72 
  "/>
<polyline clip-path="url(#clip262)" style="stroke:#000000; stroke-width:2; stroke-opacity:0.1; fill:none" points="
  156.598,1134.27 2352.76,1134.27 
  "/>
<polyline clip-path="url(#clip262)" style="stroke:#000000; stroke-width:2; stroke-opacity:0.1; fill:none" points="
  156.598,822.826 2352.76,822.826 
  "/>
<polyline clip-path="url(#clip262)" style="stroke:#000000; stroke-width:2; stroke-opacity:0.1; fill:none" points="
  156.598,511.381 2352.76,511.381 
  "/>
<polyline clip-path="url(#clip262)" style="stroke:#000000; stroke-width:2; stroke-opacity:0.1; fill:none" points="
  156.598,199.936 2352.76,199.936 
  "/>
<polyline clip-path="url(#clip260)" style="stroke:#000000; stroke-width:4; stroke-opacity:1; fill:none" points="
  156.598,1486.45 156.598,47.2441 
  "/>
<polyline clip-path="url(#clip260)" style="stroke:#000000; stroke-width:4; stroke-opacity:1; fill:none" points="
  156.598,1445.72 182.952,1445.72 
  "/>
<polyline clip-path="url(#clip260)" style="stroke:#000000; stroke-width:4; stroke-opacity:1; fill:none" points="
  156.598,1134.27 182.952,1134.27 
  "/>
<polyline clip-path="url(#clip260)" style="stroke:#000000; stroke-width:4; stroke-opacity:1; fill:none" points="
  156.598,822.826 182.952,822.826 
  "/>
<polyline clip-path="url(#clip260)" style="stroke:#000000; stroke-width:4; stroke-opacity:1; fill:none" points="
  156.598,511.381 182.952,511.381 
  "/>
<polyline clip-path="url(#clip260)" style="stroke:#000000; stroke-width:4; stroke-opacity:1; fill:none" points="
  156.598,199.936 182.952,199.936 
  "/>
<path clip-path="url(#clip260)" d="M 0 0 M63.4226 1431.51 Q59.8115 1431.51 57.9828 1435.08 Q56.1773 1438.62 56.1773 1445.75 Q56.1773 1452.86 57.9828 1456.42 Q59.8115 1459.96 63.4226 1459.96 Q67.0569 1459.96 68.8624 1456.42 Q70.6911 1452.86 70.6911 1445.75 Q70.6911 1438.62 68.8624 1435.08 Q67.0569 1431.51 63.4226 1431.51 M63.4226 1427.81 Q69.2328 1427.81 72.2883 1432.42 Q75.367 1437 75.367 1445.75 Q75.367 1454.48 72.2883 1459.08 Q69.2328 1463.67 63.4226 1463.67 Q57.6125 1463.67 54.5338 1459.08 Q51.4782 1454.48 51.4782 1445.75 Q51.4782 1437 54.5338 1432.42 Q57.6125 1427.81 63.4226 1427.81 Z" fill="#000000" fill-rule="evenodd" fill-opacity="1" /><path clip-path="url(#clip260)" d="M 0 0 M83.5845 1457.12 L88.4688 1457.12 L88.4688 1463 L83.5845 1463 L83.5845 1457.12 Z" fill="#000000" fill-rule="evenodd" fill-opacity="1" /><path clip-path="url(#clip260)" d="M 0 0 M108.654 1431.51 Q105.043 1431.51 103.214 1435.08 Q101.409 1438.62 101.409 1445.75 Q101.409 1452.86 103.214 1456.42 Q105.043 1459.96 108.654 1459.96 Q112.288 1459.96 114.094 1456.42 Q115.922 1452.86 115.922 1445.75 Q115.922 1438.62 114.094 1435.08 Q112.288 1431.51 108.654 1431.51 M108.654 1427.81 Q114.464 1427.81 117.52 1432.42 Q120.598 1437 120.598 1445.75 Q120.598 1454.48 117.52 1459.08 Q114.464 1463.67 108.654 1463.67 Q102.844 1463.67 99.765 1459.08 Q96.7095 1454.48 96.7095 1445.75 Q96.7095 1437 99.765 1432.42 Q102.844 1427.81 108.654 1427.81 Z" fill="#000000" fill-rule="evenodd" fill-opacity="1" /><path clip-path="url(#clip260)" d="M 0 0 M64.6495 1120.07 Q61.0384 1120.07 59.2097 1123.63 Q57.4041 1127.18 57.4041 1134.31 Q57.4041 1141.41 59.2097 1144.98 Q61.0384 1148.52 64.6495 1148.52 Q68.2837 1148.52 70.0892 1144.98 Q71.9179 1141.41 71.9179 1134.31 Q71.9179 1127.18 70.0892 1123.63 Q68.2837 1120.07 64.6495 1120.07 M64.6495 1116.37 Q70.4596 1116.37 73.5152 1120.97 Q76.5938 1125.56 76.5938 1134.31 Q76.5938 1143.03 73.5152 1147.64 Q70.4596 1152.22 64.6495 1152.22 Q58.8393 1152.22 55.7606 1147.64 Q52.7051 1143.03 52.7051 1134.31 Q52.7051 1125.56 55.7606 1120.97 Q58.8393 1116.37 64.6495 1116.37 Z" fill="#000000" fill-rule="evenodd" fill-opacity="1" /><path clip-path="url(#clip260)" d="M 0 0 M84.8114 1145.67 L89.6956 1145.67 L89.6956 1151.55 L84.8114 1151.55 L84.8114 1145.67 Z" fill="#000000" fill-rule="evenodd" fill-opacity="1" /><path clip-path="url(#clip260)" d="M 0 0 M100.691 1147.62 L108.33 1147.62 L108.33 1121.25 L100.02 1122.92 L100.02 1118.66 L108.283 1116.99 L112.959 1116.99 L112.959 1147.62 L120.598 1147.62 L120.598 1151.55 L100.691 1151.55 L100.691 1147.62 Z" fill="#000000" fill-rule="evenodd" fill-opacity="1" /><path clip-path="url(#clip260)" d="M 0 0 M65.0198 808.624 Q61.4087 808.624 59.58 812.189 Q57.7745 815.731 57.7745 822.861 Q57.7745 829.967 59.58 833.532 Q61.4087 837.073 65.0198 837.073 Q68.6541 837.073 70.4596 833.532 Q72.2883 829.967 72.2883 822.861 Q72.2883 815.731 70.4596 812.189 Q68.6541 808.624 65.0198 808.624 M65.0198 804.921 Q70.83 804.921 73.8855 809.527 Q76.9642 814.111 76.9642 822.861 Q76.9642 831.587 73.8855 836.194 Q70.83 840.777 65.0198 840.777 Q59.2097 840.777 56.131 836.194 Q53.0754 831.587 53.0754 822.861 Q53.0754 814.111 56.131 809.527 Q59.2097 804.921 65.0198 804.921 Z" fill="#000000" fill-rule="evenodd" fill-opacity="1" /><path clip-path="url(#clip260)" d="M 0 0 M85.1818 834.226 L90.066 834.226 L90.066 840.106 L85.1818 840.106 L85.1818 834.226 Z" fill="#000000" fill-rule="evenodd" fill-opacity="1" /><path clip-path="url(#clip260)" d="M 0 0 M104.279 836.171 L120.598 836.171 L120.598 840.106 L98.6539 840.106 L98.6539 836.171 Q101.316 833.416 105.899 828.786 Q110.506 824.134 111.686 822.791 Q113.932 820.268 114.811 818.532 Q115.714 816.773 115.714 815.083 Q115.714 812.328 113.77 810.592 Q111.848 808.856 108.746 808.856 Q106.547 808.856 104.094 809.62 Q101.663 810.384 98.8854 811.935 L98.8854 807.212 Q101.709 806.078 104.163 805.5 Q106.617 804.921 108.654 804.921 Q114.024 804.921 117.219 807.606 Q120.413 810.291 120.413 814.782 Q120.413 816.911 119.603 818.833 Q118.816 820.731 116.709 823.323 Q116.131 823.995 113.029 827.212 Q109.927 830.407 104.279 836.171 Z" fill="#000000" fill-rule="evenodd" fill-opacity="1" /><path clip-path="url(#clip260)" d="M 0 0 M64.0708 497.18 Q60.4597 497.18 58.631 500.744 Q56.8254 504.286 56.8254 511.416 Q56.8254 518.522 58.631 522.087 Q60.4597 525.628 64.0708 525.628 Q67.705 525.628 69.5105 522.087 Q71.3392 518.522 71.3392 511.416 Q71.3392 504.286 69.5105 500.744 Q67.705 497.18 64.0708 497.18 M64.0708 493.476 Q69.8809 493.476 72.9365 498.082 Q76.0151 502.666 76.0151 511.416 Q76.0151 520.142 72.9365 524.749 Q69.8809 529.332 64.0708 529.332 Q58.2606 529.332 55.1819 524.749 Q52.1264 520.142 52.1264 511.416 Q52.1264 502.666 55.1819 498.082 Q58.2606 493.476 64.0708 493.476 Z" fill="#000000" fill-rule="evenodd" fill-opacity="1" /><path clip-path="url(#clip260)" d="M 0 0 M84.2327 522.781 L89.1169 522.781 L89.1169 528.661 L84.2327 528.661 L84.2327 522.781 Z" fill="#000000" fill-rule="evenodd" fill-opacity="1" /><path clip-path="url(#clip260)" d="M 0 0 M113.469 510.027 Q116.825 510.744 118.7 513.013 Q120.598 515.281 120.598 518.615 Q120.598 523.73 117.08 526.531 Q113.561 529.332 107.08 529.332 Q104.904 529.332 102.589 528.892 Q100.297 528.476 97.8437 527.619 L97.8437 523.105 Q99.7882 524.24 102.103 524.818 Q104.418 525.397 106.941 525.397 Q111.339 525.397 113.631 523.661 Q115.945 521.925 115.945 518.615 Q115.945 515.559 113.793 513.846 Q111.663 512.11 107.844 512.11 L103.816 512.11 L103.816 508.267 L108.029 508.267 Q111.478 508.267 113.307 506.902 Q115.135 505.513 115.135 502.92 Q115.135 500.258 113.237 498.846 Q111.362 497.411 107.844 497.411 Q105.922 497.411 103.723 497.828 Q101.524 498.244 98.8854 499.124 L98.8854 494.957 Q101.547 494.217 103.862 493.846 Q106.2 493.476 108.26 493.476 Q113.584 493.476 116.686 495.906 Q119.788 498.314 119.788 502.434 Q119.788 505.304 118.145 507.295 Q116.501 509.263 113.469 510.027 Z" fill="#000000" fill-rule="evenodd" fill-opacity="1" /><path clip-path="url(#clip260)" d="M 0 0 M62.9365 185.735 Q59.3254 185.735 57.4967 189.299 Q55.6912 192.841 55.6912 199.971 Q55.6912 207.077 57.4967 210.642 Q59.3254 214.184 62.9365 214.184 Q66.5707 214.184 68.3763 210.642 Q70.205 207.077 70.205 199.971 Q70.205 192.841 68.3763 189.299 Q66.5707 185.735 62.9365 185.735 M62.9365 182.031 Q68.7467 182.031 71.8022 186.637 Q74.8809 191.221 74.8809 199.971 Q74.8809 208.697 71.8022 213.304 Q68.7467 217.887 62.9365 217.887 Q57.1264 217.887 54.0477 213.304 Q50.9921 208.697 50.9921 199.971 Q50.9921 191.221 54.0477 186.637 Q57.1264 182.031 62.9365 182.031 Z" fill="#000000" fill-rule="evenodd" fill-opacity="1" /><path clip-path="url(#clip260)" d="M 0 0 M83.0984 211.336 L87.9827 211.336 L87.9827 217.216 L83.0984 217.216 L83.0984 211.336 Z" fill="#000000" fill-rule="evenodd" fill-opacity="1" /><path clip-path="url(#clip260)" d="M 0 0 M111.015 186.73 L99.2095 205.179 L111.015 205.179 L111.015 186.73 M109.788 182.656 L115.668 182.656 L115.668 205.179 L120.598 205.179 L120.598 209.068 L115.668 209.068 L115.668 217.216 L111.015 217.216 L111.015 209.068 L95.4132 209.068 L95.4132 204.554 L109.788 182.656 Z" fill="#000000" fill-rule="evenodd" fill-opacity="1" /><path clip-path="url(#clip262)" d="
M277.391 1322.54 L277.391 1445.72 L507.341 1445.72 L507.341 1322.54 L277.391 1322.54 L277.391 1322.54  Z
  " fill="#008000" fill-rule="evenodd" fill-opacity="1"/>
<polyline clip-path="url(#clip262)" style="stroke:#000000; stroke-width:4; stroke-opacity:1; fill:none" points="
  277.391,1322.54 277.391,1445.72 507.341,1445.72 507.341,1322.54 277.391,1322.54 
  "/>
<path clip-path="url(#clip262)" d="
M564.828 1322.54 L564.828 1445.72 L794.778 1445.72 L794.778 1322.54 L564.828 1322.54 L564.828 1322.54  Z
  " fill="#008000" fill-rule="evenodd" fill-opacity="1"/>
<polyline clip-path="url(#clip262)" style="stroke:#000000; stroke-width:4; stroke-opacity:1; fill:none" points="
  564.828,1322.54 564.828,1445.72 794.778,1445.72 794.778,1322.54 564.828,1322.54 
  "/>
<path clip-path="url(#clip262)" d="
M852.265 1110.9 L852.265 1445.72 L1082.21 1445.72 L1082.21 1110.9 L852.265 1110.9 L852.265 1110.9  Z
  " fill="#008000" fill-rule="evenodd" fill-opacity="1"/>
<polyline clip-path="url(#clip262)" style="stroke:#000000; stroke-width:4; stroke-opacity:1; fill:none" points="
  852.265,1110.9 852.265,1445.72 1082.21,1445.72 1082.21,1110.9 852.265,1110.9 
  "/>
<path clip-path="url(#clip262)" d="
M1139.7 87.9763 L1139.7 1445.72 L1369.65 1445.72 L1369.65 87.9763 L1139.7 87.9763 L1139.7 87.9763  Z
  " fill="#008000" fill-rule="evenodd" fill-opacity="1"/>
<polyline clip-path="url(#clip262)" style="stroke:#000000; stroke-width:4; stroke-opacity:1; fill:none" points="
  1139.7,87.9763 1139.7,1445.72 1369.65,1445.72 1369.65,87.9763 1139.7,87.9763 
  "/>
<path clip-path="url(#clip262)" d="
M1427.14 1404.72 L1427.14 1445.72 L1657.09 1445.72 L1657.09 1404.72 L1427.14 1404.72 L1427.14 1404.72  Z
  " fill="#008000" fill-rule="evenodd" fill-opacity="1"/>
<polyline clip-path="url(#clip262)" style="stroke:#000000; stroke-width:4; stroke-opacity:1; fill:none" points="
  1427.14,1404.72 1427.14,1445.72 1657.09,1445.72 1657.09,1404.72 1427.14,1404.72 
  "/>
<path clip-path="url(#clip262)" d="
M1714.58 535.596 L1714.58 1445.72 L1944.53 1445.72 L1944.53 535.596 L1714.58 535.596 L1714.58 535.596  Z
  " fill="#008000" fill-rule="evenodd" fill-opacity="1"/>
<polyline clip-path="url(#clip262)" style="stroke:#000000; stroke-width:4; stroke-opacity:1; fill:none" points="
  1714.58,535.596 1714.58,1445.72 1944.53,1445.72 1944.53,535.596 1714.58,535.596 
  "/>
<path clip-path="url(#clip262)" d="
M2002.01 1221.28 L2002.01 1445.72 L2231.96 1445.72 L2231.96 1221.28 L2002.01 1221.28 L2002.01 1221.28  Z
  " fill="#008000" fill-rule="evenodd" fill-opacity="1"/>
<polyline clip-path="url(#clip262)" style="stroke:#000000; stroke-width:4; stroke-opacity:1; fill:none" points="
  2002.01,1221.28 2002.01,1445.72 2231.96,1445.72 2231.96,1221.28 2002.01,1221.28 
  "/>
</svg>
