<?xml version="1.0" encoding="utf-8"?>
<svg xmlns="http://www.w3.org/2000/svg" xmlns:xlink="http://www.w3.org/1999/xlink" width="600" height="400" viewBox="0 0 2400 1600">
<defs>
  <clipPath id="clip670">
    <rect x="0" y="0" width="2400" height="1600"/>
  </clipPath>
</defs>
<path clip-path="url(#clip670)" d="
M0 1600 L2400 1600 L2400 0 L0 0  Z
  " fill="#ffffff" fill-rule="evenodd" fill-opacity="1"/>
<defs>
  <clipPath id="clip671">
    <rect x="480" y="0" width="1681" height="1600"/>
  </clipPath>
</defs>
<path clip-path="url(#clip670)" d="
M171.552 1486.45 L2352.76 1486.45 L2352.76 47.2441 L171.552 47.2441  Z
  " fill="#ffffff" fill-rule="evenodd" fill-opacity="1"/>
<defs>
  <clipPath id="clip672">
    <rect x="171" y="47" width="2182" height="1440"/>
  </clipPath>
</defs>
<polyline clip-path="url(#clip672)" style="stroke:#000000; stroke-width:2; stroke-opacity:0.1; fill:none" points="
  405.714,1486.45 405.714,47.2441 
  "/>
<polyline clip-path="url(#clip672)" style="stroke:#000000; stroke-width:2; stroke-opacity:0.1; fill:none" points="
  691.194,1486.45 691.194,47.2441 
  "/>
<polyline clip-path="url(#clip672)" style="stroke:#000000; stroke-width:2; stroke-opacity:0.1; fill:none" points="
  976.674,1486.45 976.674,47.2441 
  "/>
<polyline clip-path="url(#clip672)" style="stroke:#000000; stroke-width:2; stroke-opacity:0.1; fill:none" points="
  1262.15,1486.45 1262.15,47.2441 
  "/>
<polyline clip-path="url(#clip672)" style="stroke:#000000; stroke-width:2; stroke-opacity:0.1; fill:none" points="
  1547.63,1486.45 1547.63,47.2441 
  "/>
<polyline clip-path="url(#clip672)" style="stroke:#000000; stroke-width:2; stroke-opacity:0.1; fill:none" points="
  1833.11,1486.45 1833.11,47.2441 
  "/>
<polyline clip-path="url(#clip672)" style="stroke:#000000; stroke-width:2; stroke-opacity:0.1; fill:none" points="
  2118.59,1486.45 2118.59,47.2441 
  "/>
<polyline clip-path="url(#clip670)" style="stroke:#000000; stroke-width:4; stroke-opacity:1; fill:none" points="
  171.552,1486.45 2352.76,1486.45 
  "/>
<polyline clip-path="url(#clip670)" style="stroke:#000000; stroke-width:4; stroke-opacity:1; fill:none" points="
  405.714,1486.45 405.714,1469.18 
  "/>
<polyline clip-path="url(#clip670)" style="stroke:#000000; stroke-width:4; stroke-opacity:1; fill:none" points="
  691.194,1486.45 691.194,1469.18 
  "/>
<polyline clip-path="url(#clip670)" style="stroke:#000000; stroke-width:4; stroke-opacity:1; fill:none" points="
  976.674,1486.45 976.674,1469.18 
  "/>
<polyline clip-path="url(#clip670)" style="stroke:#000000; stroke-width:4; stroke-opacity:1; fill:none" points="
  1262.15,1486.45 1262.15,1469.18 
  "/>
<polyline clip-path="url(#clip670)" style="stroke:#000000; stroke-width:4; stroke-opacity:1; fill:none" points="
  1547.63,1486.45 1547.63,1469.18 
  "/>
<polyline clip-path="url(#clip670)" style="stroke:#000000; stroke-width:4; stroke-opacity:1; fill:none" points="
  1833.11,1486.45 1833.11,1469.18 
  "/>
<polyline clip-path="url(#clip670)" style="stroke:#000000; stroke-width:4; stroke-opacity:1; fill:none" points="
  2118.59,1486.45 2118.59,1469.18 
  "/>
<path clip-path="url(#clip670)" d="M 0 0 M396.096 1543.18 L403.735 1543.18 L403.735 1516.82 L395.425 1518.49 L395.425 1514.23 L403.689 1512.56 L408.364 1512.56 L408.364 1543.18 L416.003 1543.18 L416.003 1547.12 L396.096 1547.12 L396.096 1543.18 Z" fill="#000000" fill-rule="evenodd" fill-opacity="1" /><path clip-path="url(#clip670)" d="M 0 0 M685.847 1543.18 L702.166 1543.18 L702.166 1547.12 L680.222 1547.12 L680.222 1543.18 Q682.884 1540.43 687.467 1535.8 Q692.074 1531.15 693.254 1529.81 Q695.499 1527.28 696.379 1525.55 Q697.282 1523.79 697.282 1522.1 Q697.282 1519.34 695.337 1517.61 Q693.416 1515.87 690.314 1515.87 Q688.115 1515.87 685.662 1516.63 Q683.231 1517.4 680.453 1518.95 L680.453 1514.23 Q683.277 1513.09 685.731 1512.51 Q688.185 1511.93 690.222 1511.93 Q695.592 1511.93 698.786 1514.62 Q701.981 1517.31 701.981 1521.8 Q701.981 1523.93 701.171 1525.85 Q700.384 1527.74 698.277 1530.34 Q697.699 1531.01 694.597 1534.23 Q691.495 1537.42 685.847 1543.18 Z" fill="#000000" fill-rule="evenodd" fill-opacity="1" /><path clip-path="url(#clip670)" d="M 0 0 M980.922 1528.49 Q984.278 1529.2 986.153 1531.47 Q988.051 1533.74 988.051 1537.07 Q988.051 1542.19 984.533 1544.99 Q981.014 1547.79 974.533 1547.79 Q972.357 1547.79 970.042 1547.35 Q967.75 1546.93 965.297 1546.08 L965.297 1541.56 Q967.241 1542.7 969.556 1543.28 Q971.871 1543.86 974.394 1543.86 Q978.792 1543.86 981.084 1542.12 Q983.398 1540.38 983.398 1537.07 Q983.398 1534.02 981.246 1532.31 Q979.116 1530.57 975.297 1530.57 L971.269 1530.57 L971.269 1526.73 L975.482 1526.73 Q978.931 1526.73 980.76 1525.36 Q982.588 1523.97 982.588 1521.38 Q982.588 1518.72 980.69 1517.31 Q978.815 1515.87 975.297 1515.87 Q973.375 1515.87 971.176 1516.29 Q968.977 1516.7 966.338 1517.58 L966.338 1513.42 Q969 1512.68 971.315 1512.31 Q973.653 1511.93 975.713 1511.93 Q981.037 1511.93 984.139 1514.37 Q987.241 1516.77 987.241 1520.89 Q987.241 1523.76 985.597 1525.75 Q983.954 1527.72 980.922 1528.49 Z" fill="#000000" fill-rule="evenodd" fill-opacity="1" /><path clip-path="url(#clip670)" d="M 0 0 M1265.16 1516.63 L1253.36 1535.08 L1265.16 1535.08 L1265.16 1516.63 M1263.94 1512.56 L1269.82 1512.56 L1269.82 1535.08 L1274.75 1535.08 L1274.75 1538.97 L1269.82 1538.97 L1269.82 1547.12 L1265.16 1547.12 L1265.16 1538.97 L1249.56 1538.97 L1249.56 1534.46 L1263.94 1512.56 Z" fill="#000000" fill-rule="evenodd" fill-opacity="1" /><path clip-path="url(#clip670)" d="M 0 0 M1537.91 1512.56 L1556.27 1512.56 L1556.27 1516.5 L1542.19 1516.5 L1542.19 1524.97 Q1543.21 1524.62 1544.23 1524.46 Q1545.25 1524.27 1546.27 1524.27 Q1552.06 1524.27 1555.43 1527.44 Q1558.81 1530.62 1558.81 1536.03 Q1558.81 1541.61 1555.34 1544.71 Q1551.87 1547.79 1545.55 1547.79 Q1543.37 1547.79 1541.11 1547.42 Q1538.86 1547.05 1536.45 1546.31 L1536.45 1541.61 Q1538.54 1542.74 1540.76 1543.3 Q1542.98 1543.86 1545.46 1543.86 Q1549.46 1543.86 1551.8 1541.75 Q1554.14 1539.64 1554.14 1536.03 Q1554.14 1532.42 1551.8 1530.31 Q1549.46 1528.21 1545.46 1528.21 Q1543.58 1528.21 1541.71 1528.62 Q1539.86 1529.04 1537.91 1529.92 L1537.91 1512.56 Z" fill="#000000" fill-rule="evenodd" fill-opacity="1" /><path clip-path="url(#clip670)" d="M 0 0 M1833.52 1527.98 Q1830.37 1527.98 1828.52 1530.13 Q1826.69 1532.28 1826.69 1536.03 Q1826.69 1539.76 1828.52 1541.93 Q1830.37 1544.09 1833.52 1544.09 Q1836.67 1544.09 1838.5 1541.93 Q1840.35 1539.76 1840.35 1536.03 Q1840.35 1532.28 1838.5 1530.13 Q1836.67 1527.98 1833.52 1527.98 M1842.8 1513.32 L1842.8 1517.58 Q1841.04 1516.75 1839.24 1516.31 Q1837.45 1515.87 1835.69 1515.87 Q1831.07 1515.87 1828.61 1519 Q1826.18 1522.12 1825.83 1528.44 Q1827.2 1526.43 1829.26 1525.36 Q1831.32 1524.27 1833.8 1524.27 Q1839.01 1524.27 1842.01 1527.44 Q1845.05 1530.59 1845.05 1536.03 Q1845.05 1541.36 1841.9 1544.57 Q1838.75 1547.79 1833.52 1547.79 Q1827.52 1547.79 1824.35 1543.21 Q1821.18 1538.6 1821.18 1529.87 Q1821.18 1521.68 1825.07 1516.82 Q1828.96 1511.93 1835.51 1511.93 Q1837.27 1511.93 1839.05 1512.28 Q1840.86 1512.63 1842.8 1513.32 Z" fill="#000000" fill-rule="evenodd" fill-opacity="1" /><path clip-path="url(#clip670)" d="M 0 0 M2107.48 1512.56 L2129.7 1512.56 L2129.7 1514.55 L2117.16 1547.12 L2112.27 1547.12 L2124.08 1516.5 L2107.48 1516.5 L2107.48 1512.56 Z" fill="#000000" fill-rule="evenodd" fill-opacity="1" /><polyline clip-path="url(#clip672)" style="stroke:#000000; stroke-width:2; stroke-opacity:0.1; fill:none" points="
  171.552,1445.72 2352.76,1445.72 
  "/>
<polyline clip-path="url(#clip672)" style="stroke:#000000; stroke-width:2; stroke-opacity:0.1; fill:none" points="
  171.552,1152.09 2352.76,1152.09 
  "/>
<polyline clip-path="url(#clip672)" style="stroke:#000000; stroke-width:2; stroke-opacity:0.1; fill:none" points="
  171.552,858.458 2352.76,858.458 
  "/>
<polyline clip-path="url(#clip672)" style="stroke:#000000; stroke-width:2; stroke-opacity:0.1; fill:none" points="
  171.552,564.829 2352.76,564.829 
  "/>
<polyline clip-path="url(#clip672)" style="stroke:#000000; stroke-width:2; stroke-opacity:0.1; fill:none" points="
  171.552,271.201 2352.76,271.201 
  "/>
<polyline clip-path="url(#clip670)" style="stroke:#000000; stroke-width:4; stroke-opacity:1; fill:none" points="
  171.552,1486.45 171.552,47.2441 
  "/>
<polyline clip-path="url(#clip670)" style="stroke:#000000; stroke-width:4; stroke-opacity:1; fill:none" points="
  171.552,1445.72 197.726,1445.72 
  "/>
<polyline clip-path="url(#clip670)" style="stroke:#000000; stroke-width:4; stroke-opacity:1; fill:none" points="
  171.552,1152.09 197.726,1152.09 
  "/>
<polyline clip-path="url(#clip670)" style="stroke:#000000; stroke-width:4; stroke-opacity:1; fill:none" points="
  171.552,858.458 197.726,858.458 
  "/>
<polyline clip-path="url(#clip670)" style="stroke:#000000; stroke-width:4; stroke-opacity:1; fill:none" points="
  171.552,564.829 197.726,564.829 
  "/>
<polyline clip-path="url(#clip670)" style="stroke:#000000; stroke-width:4; stroke-opacity:1; fill:none" points="
  171.552,271.201 197.726,271.201 
  "/>
<path clip-path="url(#clip670)" d="M 0 0 M86.6401 1431.51 Q83.029 1431.51 81.2003 1435.08 Q79.3948 1438.62 79.3948 1445.75 Q79.3948 1452.86 81.2003 1456.42 Q83.029 1459.96 86.6401 1459.96 Q90.2743 1459.96 92.0799 1456.42 Q93.9086 1452.86 93.9086 1445.75 Q93.9086 1438.62 92.0799 1435.08 Q90.2743 1431.51 86.6401 1431.51 M86.6401 1427.81 Q92.4502 1427.81 95.5058 1432.42 Q98.5845 1437 98.5845 1445.75 Q98.5845 1454.48 95.5058 1459.08 Q92.4502 1463.67 86.6401 1463.67 Q80.8299 1463.67 77.7512 1459.08 Q74.6957 1454.48 74.6957 1445.75 Q74.6957 1437 77.7512 1432.42 Q80.8299 1427.81 86.6401 1427.81 Z" fill="#000000" fill-rule="evenodd" fill-opacity="1" /><path clip-path="url(#clip670)" d="M 0 0 M103.654 1457.12 L108.538 1457.12 L108.538 1463 L103.654 1463 L103.654 1457.12 Z" fill="#000000" fill-rule="evenodd" fill-opacity="1" /><path clip-path="url(#clip670)" d="M 0 0 M123.607 1431.51 Q119.996 1431.51 118.168 1435.08 Q116.362 1438.62 116.362 1445.75 Q116.362 1452.86 118.168 1456.42 Q119.996 1459.96 123.607 1459.96 Q127.242 1459.96 129.047 1456.42 Q130.876 1452.86 130.876 1445.75 Q130.876 1438.62 129.047 1435.08 Q127.242 1431.51 123.607 1431.51 M123.607 1427.81 Q129.418 1427.81 132.473 1432.42 Q135.552 1437 135.552 1445.75 Q135.552 1454.48 132.473 1459.08 Q129.418 1463.67 123.607 1463.67 Q117.797 1463.67 114.719 1459.08 Q111.663 1454.48 111.663 1445.75 Q111.663 1437 114.719 1432.42 Q117.797 1427.81 123.607 1427.81 Z" fill="#000000" fill-rule="evenodd" fill-opacity="1" /><path clip-path="url(#clip670)" d="M 0 0 M83.2605 1165.43 L99.5798 1165.43 L99.5798 1169.37 L77.6355 1169.37 L77.6355 1165.43 Q80.2975 1162.68 84.8808 1158.05 Q89.4873 1153.39 90.6678 1152.05 Q92.9132 1149.53 93.7928 1147.79 Q94.6956 1146.03 94.6956 1144.34 Q94.6956 1141.59 92.7512 1139.85 Q90.8299 1138.12 87.728 1138.12 Q85.529 1138.12 83.0753 1138.88 Q80.6447 1139.64 77.867 1141.2 L77.867 1136.47 Q80.691 1135.34 83.1447 1134.76 Q85.5984 1134.18 87.6354 1134.18 Q93.0058 1134.18 96.2002 1136.87 Q99.3946 1139.55 99.3946 1144.04 Q99.3946 1146.17 98.5845 1148.09 Q97.7974 1149.99 95.691 1152.58 Q95.1123 1153.26 92.0104 1156.47 Q88.9086 1159.67 83.2605 1165.43 Z" fill="#000000" fill-rule="evenodd" fill-opacity="1" /><path clip-path="url(#clip670)" d="M 0 0 M104.649 1163.49 L109.533 1163.49 L109.533 1169.37 L104.649 1169.37 L104.649 1163.49 Z" fill="#000000" fill-rule="evenodd" fill-opacity="1" /><path clip-path="url(#clip670)" d="M 0 0 M114.649 1134.81 L133.006 1134.81 L133.006 1138.74 L118.932 1138.74 L118.932 1147.21 Q119.95 1146.87 120.969 1146.71 Q121.987 1146.52 123.006 1146.52 Q128.793 1146.52 132.172 1149.69 Q135.552 1152.86 135.552 1158.28 Q135.552 1163.86 132.08 1166.96 Q128.607 1170.04 122.288 1170.04 Q120.112 1170.04 117.844 1169.67 Q115.598 1169.3 113.191 1168.56 L113.191 1163.86 Q115.274 1164.99 117.496 1165.55 Q119.719 1166.1 122.195 1166.1 Q126.2 1166.1 128.538 1164 Q130.876 1161.89 130.876 1158.28 Q130.876 1154.67 128.538 1152.56 Q126.2 1150.45 122.195 1150.45 Q120.32 1150.45 118.445 1150.87 Q116.594 1151.29 114.649 1152.17 L114.649 1134.81 Z" fill="#000000" fill-rule="evenodd" fill-opacity="1" /><path clip-path="url(#clip670)" d="M 0 0 M77.6818 841.178 L96.0382 841.178 L96.0382 845.113 L81.9642 845.113 L81.9642 853.586 Q82.9827 853.238 84.0012 853.076 Q85.0197 852.891 86.0382 852.891 Q91.8252 852.891 95.2049 856.062 Q98.5845 859.234 98.5845 864.65 Q98.5845 870.229 95.1123 873.331 Q91.6401 876.409 85.3206 876.409 Q83.1447 876.409 80.8762 876.039 Q78.6309 875.669 76.2235 874.928 L76.2235 870.229 Q78.3068 871.363 80.529 871.919 Q82.7512 872.474 85.2281 872.474 Q89.2327 872.474 91.5706 870.368 Q93.9086 868.261 93.9086 864.65 Q93.9086 861.039 91.5706 858.933 Q89.2327 856.826 85.2281 856.826 Q83.3531 856.826 81.4781 857.243 Q79.6262 857.66 77.6818 858.539 L77.6818 841.178 Z" fill="#000000" fill-rule="evenodd" fill-opacity="1" /><path clip-path="url(#clip670)" d="M 0 0 M103.654 869.859 L108.538 869.859 L108.538 875.738 L103.654 875.738 L103.654 869.859 Z" fill="#000000" fill-rule="evenodd" fill-opacity="1" /><path clip-path="url(#clip670)" d="M 0 0 M123.607 844.257 Q119.996 844.257 118.168 847.822 Q116.362 851.363 116.362 858.493 Q116.362 865.599 118.168 869.164 Q119.996 872.706 123.607 872.706 Q127.242 872.706 129.047 869.164 Q130.876 865.599 130.876 858.493 Q130.876 851.363 129.047 847.822 Q127.242 844.257 123.607 844.257 M123.607 840.553 Q129.418 840.553 132.473 845.16 Q135.552 849.743 135.552 858.493 Q135.552 867.22 132.473 871.826 Q129.418 876.409 123.607 876.409 Q117.797 876.409 114.719 871.826 Q111.663 867.22 111.663 858.493 Q111.663 849.743 114.719 845.16 Q117.797 840.553 123.607 840.553 Z" fill="#000000" fill-rule="evenodd" fill-opacity="1" /><path clip-path="url(#clip670)" d="M 0 0 M77.3577 547.549 L99.5798 547.549 L99.5798 549.54 L87.0336 582.109 L82.1494 582.109 L93.9549 551.485 L77.3577 551.485 L77.3577 547.549 Z" fill="#000000" fill-rule="evenodd" fill-opacity="1" /><path clip-path="url(#clip670)" d="M 0 0 M104.649 576.23 L109.533 576.23 L109.533 582.109 L104.649 582.109 L104.649 576.23 Z" fill="#000000" fill-rule="evenodd" fill-opacity="1" /><path clip-path="url(#clip670)" d="M 0 0 M114.649 547.549 L133.006 547.549 L133.006 551.485 L118.932 551.485 L118.932 559.957 Q119.95 559.61 120.969 559.447 Q121.987 559.262 123.006 559.262 Q128.793 559.262 132.172 562.434 Q135.552 565.605 135.552 571.021 Q135.552 576.6 132.08 579.702 Q128.607 582.781 122.288 582.781 Q120.112 582.781 117.844 582.41 Q115.598 582.04 113.191 581.299 L113.191 576.6 Q115.274 577.734 117.496 578.29 Q119.719 578.846 122.195 578.846 Q126.2 578.846 128.538 576.739 Q130.876 574.633 130.876 571.021 Q130.876 567.41 128.538 565.304 Q126.2 563.197 122.195 563.197 Q120.32 563.197 118.445 563.614 Q116.594 564.031 114.649 564.91 L114.649 547.549 Z" fill="#000000" fill-rule="evenodd" fill-opacity="1" /><path clip-path="url(#clip670)" d="M 0 0 M51.6634 284.545 L59.3023 284.545 L59.3023 258.18 L50.9921 259.847 L50.9921 255.587 L59.256 253.921 L63.9319 253.921 L63.9319 284.545 L71.5707 284.545 L71.5707 288.481 L51.6634 288.481 L51.6634 284.545 Z" fill="#000000" fill-rule="evenodd" fill-opacity="1" /><path clip-path="url(#clip670)" d="M 0 0 M86.6401 256.999 Q83.029 256.999 81.2003 260.564 Q79.3948 264.106 79.3948 271.235 Q79.3948 278.342 81.2003 281.907 Q83.029 285.448 86.6401 285.448 Q90.2743 285.448 92.0799 281.907 Q93.9086 278.342 93.9086 271.235 Q93.9086 264.106 92.0799 260.564 Q90.2743 256.999 86.6401 256.999 M86.6401 253.296 Q92.4502 253.296 95.5058 257.902 Q98.5845 262.485 98.5845 271.235 Q98.5845 279.962 95.5058 284.569 Q92.4502 289.152 86.6401 289.152 Q80.8299 289.152 77.7512 284.569 Q74.6957 279.962 74.6957 271.235 Q74.6957 262.485 77.7512 257.902 Q80.8299 253.296 86.6401 253.296 Z" fill="#000000" fill-rule="evenodd" fill-opacity="1" /><path clip-path="url(#clip670)" d="M 0 0 M103.654 282.601 L108.538 282.601 L108.538 288.481 L103.654 288.481 L103.654 282.601 Z" fill="#000000" fill-rule="evenodd" fill-opacity="1" /><path clip-path="url(#clip670)" d="M 0 0 M123.607 256.999 Q119.996 256.999 118.168 260.564 Q116.362 264.106 116.362 271.235 Q116.362 278.342 118.168 281.907 Q119.996 285.448 123.607 285.448 Q127.242 285.448 129.047 281.907 Q130.876 278.342 130.876 271.235 Q130.876 264.106 129.047 260.564 Q127.242 256.999 123.607 256.999 M123.607 253.296 Q129.418 253.296 132.473 257.902 Q135.552 262.485 135.552 271.235 Q135.552 279.962 132.473 284.569 Q129.418 289.152 123.607 289.152 Q117.797 289.152 114.719 284.569 Q111.663 279.962 111.663 271.235 Q111.663 262.485 114.719 257.902 Q117.797 253.296 123.607 253.296 Z" fill="#000000" fill-rule="evenodd" fill-opacity="1" /><path clip-path="url(#clip672)" d="
M291.522 1328.26 L291.522 1445.72 L519.906 1445.72 L519.906 1328.26 L291.522 1328.26 L291.522 1328.26  Z
  " fill="#008000" fill-rule="evenodd" fill-opacity="1"/>
<polyline clip-path="url(#clip672)" style="stroke:#000000; stroke-width:4; stroke-opacity:1; fill:none" points="
  291.522,1328.26 291.522,1445.72 519.906,1445.72 519.906,1328.26 291.522,1328.26 
  "/>
<path clip-path="url(#clip672)" d="
M577.002 1328.26 L577.002 1445.72 L805.386 1445.72 L805.386 1328.26 L577.002 1328.26 L577.002 1328.26  Z
  " fill="#008000" fill-rule="evenodd" fill-opacity="1"/>
<polyline clip-path="url(#clip672)" style="stroke:#000000; stroke-width:4; stroke-opacity:1; fill:none" points="
  577.002,1328.26 577.002,1445.72 805.386,1445.72 805.386,1328.26 577.002,1328.26 
  "/>
<path clip-path="url(#clip672)" d="
M862.482 975.91 L862.482 1445.72 L1090.87 1445.72 L1090.87 975.91 L862.482 975.91 L862.482 975.91  Z
  " fill="#008000" fill-rule="evenodd" fill-opacity="1"/>
<polyline clip-path="url(#clip672)" style="stroke:#000000; stroke-width:4; stroke-opacity:1; fill:none" points="
  862.482,975.91 862.482,1445.72 1090.87,1445.72 1090.87,975.91 862.482,975.91 
  "/>
<path clip-path="url(#clip672)" d="
M1147.96 87.9763 L1147.96 1445.72 L1376.35 1445.72 L1376.35 87.9763 L1147.96 87.9763 L1147.96 87.9763  Z
  " fill="#008000" fill-rule="evenodd" fill-opacity="1"/>
<polyline clip-path="url(#clip672)" style="stroke:#000000; stroke-width:4; stroke-opacity:1; fill:none" points="
  1147.96,87.9763 1147.96,1445.72 1376.35,1445.72 1376.35,87.9763 1147.96,87.9763 
  "/>
<path clip-path="url(#clip672)" d="
M1433.44 1444.54 L1433.44 1445.72 L1661.83 1445.72 L1661.83 1444.54 L1433.44 1444.54 L1433.44 1444.54  Z
  " fill="#008000" fill-rule="evenodd" fill-opacity="1"/>
<polyline clip-path="url(#clip672)" style="stroke:#000000; stroke-width:4; stroke-opacity:1; fill:none" points="
  1433.44,1444.54 1433.44,1445.72 1661.83,1445.72 1661.83,1444.54 1433.44,1444.54 
  "/>
<path clip-path="url(#clip672)" d="
M1718.92 388.652 L1718.92 1445.72 L1947.31 1445.72 L1947.31 388.652 L1718.92 388.652 L1718.92 388.652  Z
  " fill="#008000" fill-rule="evenodd" fill-opacity="1"/>
<polyline clip-path="url(#clip672)" style="stroke:#000000; stroke-width:4; stroke-opacity:1; fill:none" points="
  1718.92,388.652 1718.92,1445.72 1947.31,1445.72 1947.31,388.652 1718.92,388.652 
  "/>
<path clip-path="url(#clip672)" d="
M2004.4 1145.04 L2004.4 1445.72 L2232.79 1445.72 L2232.79 1145.04 L2004.4 1145.04 L2004.4 1145.04  Z
  " fill="#008000" fill-rule="evenodd" fill-opacity="1"/>
<polyline clip-path="url(#clip672)" style="stroke:#000000; stroke-width:4; stroke-opacity:1; fill:none" points="
  2004.4,1145.04 2004.4,1445.72 2232.79,1445.72 2232.79,1145.04 2004.4,1145.04 
  "/>
</svg>
